<?xml version="1.0" encoding="UTF-8" standalone="no"?><svg xmlns="http://www.w3.org/2000/svg" xmlns:xlink="http://www.w3.org/1999/xlink" contentScriptType="application/ecmascript" contentStyleType="text/css" height="301px" preserveAspectRatio="none" style="width:378px;height:301px;background:#FFFFFF;" version="1.1" viewBox="0 0 378 301" width="378px" zoomAndPan="magnify"><defs><filter height="300%" id="fwmc18lq0gw8v" width="300%" x="-1" y="-1"><feGaussianBlur result="blurOut" stdDeviation="2.0"/><feColorMatrix in="blurOut" result="blurOut2" type="matrix" values="0 0 0 0 0 0 0 0 0 0 0 0 0 0 0 0 0 0 .4 0"/><feOffset dx="4.0" dy="4.0" in="blurOut2" result="blurOut3"/><feBlend in="SourceGraphic" in2="blurOut3" mode="normal"/></filter></defs><g><!--MD5=[8039907bb9346916162ed7fe3476fc60]
class CaffeineBeverage--><rect codeLine="1" fill="#FEFECE" filter="url(#fwmc18lq0gw8v)" height="131.0156" id="CaffeineBeverage" style="stroke:#A80036;stroke-width:1.5;" width="263" x="54" y="7"/><ellipse cx="131.75" cy="23" fill="#A9DCDF" rx="11" ry="11" style="stroke:#A80036;stroke-width:1.0;"/><path d="M133.9375,24.7656 L129.7969,24.7656 L129.375,25.7969 L129.7969,25.7969 Q130.4063,25.7969 130.6719,26.0313 Q130.9375,26.2656 130.9375,26.6563 Q130.9375,27.0313 130.6719,27.2656 Q130.4063,27.5 129.7969,27.5 L127.5,27.5 Q126.8906,27.5 126.6328,27.2656 Q126.375,27.0313 126.375,26.6406 Q126.375,26.2656 126.6484,26.0234 Q126.9219,25.7813 127.5469,25.7969 L130.2188,19.1406 L129.1094,19.1406 Q128.5,19.1406 128.2344,18.9063 Q127.9688,18.6719 127.9688,18.2813 Q127.9688,17.9063 128.2344,17.6719 Q128.5,17.4375 129.1094,17.4375 L132.7813,17.4375 L136.1719,25.7969 Q136.7656,25.7969 136.9531,25.9375 Q137.3438,26.2031 137.3438,26.6563 Q137.3438,27.0313 137.0859,27.2656 Q136.8281,27.5 136.2188,27.5 L133.9219,27.5 Q133.3125,27.5 133.0469,27.2656 Q132.7813,27.0313 132.7813,26.6406 Q132.7813,26.2656 133.0469,26.0313 Q133.3125,25.7969 133.9219,25.7969 L134.3438,25.7969 L133.9375,24.7656 Z M133.2188,23.0625 L131.8594,19.6875 L130.4844,23.0625 L133.2188,23.0625 Z " fill="#000000"/><text fill="#000000" font-family="sans-serif" font-size="12" font-style="italic" lengthAdjust="spacing" textLength="99" x="152.25" y="27.9102">CaffeineBeverage</text><line style="stroke:#A80036;stroke-width:1.5;" x1="55" x2="316" y1="39" y2="39"/><line style="stroke:#A80036;stroke-width:1.5;" x1="55" x2="316" y1="47" y2="47"/><ellipse cx="65" cy="58" fill="#84BE84" rx="3" ry="3" style="stroke:#038048;stroke-width:1.0;"/><text fill="#000000" font-family="sans-serif" font-size="11" lengthAdjust="spacing" textLength="218" x="74" y="62.4189">void prepareRecipe() final  // template method</text><ellipse cx="65" cy="71.8359" fill="#84BE84" rx="3" ry="3" style="stroke:#038048;stroke-width:1.0;"/><text fill="#000000" font-family="sans-serif" font-size="11" lengthAdjust="spacing" textLength="76" x="74" y="76.2549">void boilWater()</text><ellipse cx="65" cy="85.6719" fill="#84BE84" rx="3" ry="3" style="stroke:#038048;stroke-width:1.0;"/><text fill="#000000" font-family="sans-serif" font-size="11" lengthAdjust="spacing" textLength="80" x="74" y="90.0908">void pourInCup()</text><ellipse cx="65" cy="99.5078" fill="#84BE84" rx="3" ry="3" style="stroke:#038048;stroke-width:1.0;"/><text fill="#0000FF" font-family="sans-serif" font-size="11" lengthAdjust="spacing" textLength="107" x="74" y="103.9268">virtual void brew() = 0</text><ellipse cx="65" cy="113.3438" fill="#84BE84" rx="3" ry="3" style="stroke:#038048;stroke-width:1.0;"/><text fill="#0000FF" font-family="sans-serif" font-size="11" lengthAdjust="spacing" textLength="155" x="74" y="117.7627">virtual void addCondiments() = 0</text><ellipse cx="65" cy="127.1797" fill="#84BE84" rx="3" ry="3" style="stroke:#038048;stroke-width:1.0;"/><text fill="#0000FF" font-family="sans-serif" font-size="11" lengthAdjust="spacing" textLength="237" x="74" y="131.5986">bool CustomerWantCondiments()   // hook method</text><!--MD5=[2e1ad56708f952daa81365fab7f09e1c]
class Coffe--><rect codeLine="11" fill="#FEFECE" filter="url(#fwmc18lq0gw8v)" height="89.5078" id="Coffe" style="stroke:#A80036;stroke-width:1.5;" width="161" x="7" y="198"/><ellipse cx="68.75" cy="214" fill="#ADD1B2" rx="11" ry="11" style="stroke:#A80036;stroke-width:1.0;"/><path d="M71.5156,209.875 Q71.6719,209.6563 71.8594,209.5469 Q72.0469,209.4375 72.2656,209.4375 Q72.6406,209.4375 72.875,209.6953 Q73.1094,209.9531 73.1094,210.5625 L73.1094,212.0156 Q73.1094,212.625 72.875,212.8906 Q72.6406,213.1563 72.2656,213.1563 Q71.9219,213.1563 71.7188,212.9531 Q71.5156,212.7656 71.4063,212.25 Q71.3594,211.8906 71.1719,211.7031 Q70.8438,211.3281 70.2344,211.1094 Q69.625,210.8906 69,210.8906 Q68.2344,210.8906 67.6016,211.2188 Q66.9688,211.5469 66.4766,212.2969 Q65.9844,213.0469 65.9844,214.0781 L65.9844,215.1719 Q65.9844,216.4063 66.875,217.2266 Q67.7656,218.0469 69.3594,218.0469 Q70.2969,218.0469 70.9531,217.7969 Q71.3438,217.6406 71.7656,217.2031 Q72.0313,216.9375 72.1797,216.8594 Q72.3281,216.7813 72.5313,216.7813 Q72.8594,216.7813 73.1172,217.0391 Q73.375,217.2969 73.375,217.6406 Q73.375,217.9844 73.0313,218.3906 Q72.5313,218.9688 71.7344,219.2969 Q70.6563,219.75 69.3594,219.75 Q67.8438,219.75 66.6406,219.125 Q65.6563,218.625 64.9688,217.5547 Q64.2813,216.4844 64.2813,215.2031 L64.2813,214.0469 Q64.2813,212.7188 64.8984,211.5703 Q65.5156,210.4219 66.6094,209.8047 Q67.7031,209.1875 68.9375,209.1875 Q69.6719,209.1875 70.3203,209.3516 Q70.9688,209.5156 71.5156,209.875 Z " fill="#000000"/><text fill="#000000" font-family="sans-serif" font-size="12" lengthAdjust="spacing" textLength="29" x="89.25" y="218.9102">Coffe</text><line style="stroke:#A80036;stroke-width:1.5;" x1="8" x2="167" y1="230" y2="230"/><line style="stroke:#A80036;stroke-width:1.5;" x1="8" x2="167" y1="238" y2="238"/><ellipse cx="18" cy="249" fill="#84BE84" rx="3" ry="3" style="stroke:#038048;stroke-width:1.0;"/><text fill="#0000FF" font-family="sans-serif" font-size="11" lengthAdjust="spacing" textLength="57" x="27" y="253.4189">void brew()</text><ellipse cx="18" cy="262.8359" fill="#84BE84" rx="3" ry="3" style="stroke:#038048;stroke-width:1.0;"/><text fill="#0000FF" font-family="sans-serif" font-size="11" lengthAdjust="spacing" textLength="105" x="27" y="267.2549">void addCondiments()</text><ellipse cx="18" cy="276.6719" fill="#84BE84" rx="3" ry="3" style="stroke:#038048;stroke-width:1.0;"/><text fill="#0000FF" font-family="sans-serif" font-size="11" lengthAdjust="spacing" textLength="135" x="27" y="281.0908">CustomerWantCondiments()</text><!--MD5=[8252cd18dac1d78ee96cce0ec9ed80fb]
class Tea--><rect codeLine="17" fill="#FEFECE" filter="url(#fwmc18lq0gw8v)" height="89.5078" id="Tea" style="stroke:#A80036;stroke-width:1.5;" width="161" x="203" y="198"/><ellipse cx="268.75" cy="214" fill="#ADD1B2" rx="11" ry="11" style="stroke:#A80036;stroke-width:1.0;"/><path d="M271.5156,209.875 Q271.6719,209.6563 271.8594,209.5469 Q272.0469,209.4375 272.2656,209.4375 Q272.6406,209.4375 272.875,209.6953 Q273.1094,209.9531 273.1094,210.5625 L273.1094,212.0156 Q273.1094,212.625 272.875,212.8906 Q272.6406,213.1563 272.2656,213.1563 Q271.9219,213.1563 271.7188,212.9531 Q271.5156,212.7656 271.4063,212.25 Q271.3594,211.8906 271.1719,211.7031 Q270.8438,211.3281 270.2344,211.1094 Q269.625,210.8906 269,210.8906 Q268.2344,210.8906 267.6016,211.2188 Q266.9688,211.5469 266.4766,212.2969 Q265.9844,213.0469 265.9844,214.0781 L265.9844,215.1719 Q265.9844,216.4063 266.875,217.2266 Q267.7656,218.0469 269.3594,218.0469 Q270.2969,218.0469 270.9531,217.7969 Q271.3438,217.6406 271.7656,217.2031 Q272.0313,216.9375 272.1797,216.8594 Q272.3281,216.7813 272.5313,216.7813 Q272.8594,216.7813 273.1172,217.0391 Q273.375,217.2969 273.375,217.6406 Q273.375,217.9844 273.0313,218.3906 Q272.5313,218.9688 271.7344,219.2969 Q270.6563,219.75 269.3594,219.75 Q267.8438,219.75 266.6406,219.125 Q265.6563,218.625 264.9688,217.5547 Q264.2813,216.4844 264.2813,215.2031 L264.2813,214.0469 Q264.2813,212.7188 264.8984,211.5703 Q265.5156,210.4219 266.6094,209.8047 Q267.7031,209.1875 268.9375,209.1875 Q269.6719,209.1875 270.3203,209.3516 Q270.9688,209.5156 271.5156,209.875 Z " fill="#000000"/><text fill="#000000" font-family="sans-serif" font-size="12" lengthAdjust="spacing" textLength="21" x="289.25" y="218.9102">Tea</text><line style="stroke:#A80036;stroke-width:1.5;" x1="204" x2="363" y1="230" y2="230"/><line style="stroke:#A80036;stroke-width:1.5;" x1="204" x2="363" y1="238" y2="238"/><ellipse cx="214" cy="249" fill="#84BE84" rx="3" ry="3" style="stroke:#038048;stroke-width:1.0;"/><text fill="#0000FF" font-family="sans-serif" font-size="11" lengthAdjust="spacing" textLength="57" x="223" y="253.4189">void brew()</text><ellipse cx="214" cy="262.8359" fill="#84BE84" rx="3" ry="3" style="stroke:#038048;stroke-width:1.0;"/><text fill="#0000FF" font-family="sans-serif" font-size="11" lengthAdjust="spacing" textLength="105" x="223" y="267.2549">void addCondiments()</text><ellipse cx="214" cy="276.6719" fill="#84BE84" rx="3" ry="3" style="stroke:#038048;stroke-width:1.0;"/><text fill="#0000FF" font-family="sans-serif" font-size="11" lengthAdjust="spacing" textLength="135" x="223" y="281.0908">CustomerWantCondiments()</text><!--MD5=[7511770780fb61cd1fae31afe9bedcca]
reverse link CaffeineBeverage to Coffe--><path d="M137.67,155.74 C129.21,170.28 120.71,184.9 113.17,197.86 " fill="none" id="CaffeineBeverage-backto-Coffe" style="stroke:#A80036;stroke-width:1.0;"/><polygon fill="none" points="131.78,151.93,147.89,138.16,143.89,158.97,131.78,151.93" style="stroke:#A80036;stroke-width:1.0;"/><!--MD5=[45140c75b900cd65a93772287d16fa37]
reverse link CaffeineBeverage to Tea--><path d="M233.33,155.74 C241.79,170.28 250.29,184.9 257.83,197.86 " fill="none" id="CaffeineBeverage-backto-Tea" style="stroke:#A80036;stroke-width:1.0;"/><polygon fill="none" points="227.11,158.97,223.11,138.16,239.22,151.93,227.11,158.97" style="stroke:#A80036;stroke-width:1.0;"/><!--MD5=[ae6dbe5cf30a361ae9d8460985ec81c3]
@startuml Template Method Pattern
abstract class CaffeineBeverage{
    + void prepareRecipe() final  // template method
    + void boilWater()
    + void pourInCup()
    + <color:blue>virtual void brew() = 0  
    + <color:blue>virtual void addCondiments() = 0
    + <color:blue>bool CustomerWantCondiments()   // hook method
}
' brew: brew sth, to make a hot drink of tea or coffee

class Coffe extends CaffeineBeverage{
    + <color:blue>void brew() 
    + <color:blue>void addCondiments()  
    + <color:blue>CustomerWantCondiments() 
}

class Tea extends CaffeineBeverage{
    + <color:blue>void brew() 
    + <color:blue>void addCondiments() 
    + <color:blue>CustomerWantCondiments() 
}

@enduml

@startuml Template Method Pattern
abstract class CaffeineBeverage{
    + void prepareRecipe() final  // template method
    + void boilWater()
    + void pourInCup()
    + <color:blue>virtual void brew() = 0  
    + <color:blue>virtual void addCondiments() = 0
    + <color:blue>bool CustomerWantCondiments()   // hook method
}

class Coffe extends CaffeineBeverage{
    + <color:blue>void brew() 
    + <color:blue>void addCondiments()  
    + <color:blue>CustomerWantCondiments() 
}

class Tea extends CaffeineBeverage{
    + <color:blue>void brew() 
    + <color:blue>void addCondiments() 
    + <color:blue>CustomerWantCondiments() 
}

@enduml

PlantUML version 1.2021.12(Wed Oct 06 00:01:58 CST 2021)
(GPL source distribution)
Java Runtime: Java(TM) SE Runtime Environment
JVM: Java HotSpot(TM) Client VM
Default Encoding: Cp1252
Language: en
Country: US
--></g></svg>