<?xml version="1.0" encoding="UTF-8" standalone="no"?><svg xmlns="http://www.w3.org/2000/svg" xmlns:xlink="http://www.w3.org/1999/xlink" contentScriptType="application/ecmascript" contentStyleType="text/css" height="461px" preserveAspectRatio="none" style="width:989px;height:461px;background:#FFFFFF;" version="1.1" viewBox="0 0 989 461" width="989px" zoomAndPan="magnify"><defs><filter height="300%" id="f2vleg68krs6c" width="300%" x="-1" y="-1"><feGaussianBlur result="blurOut" stdDeviation="2.0"/><feColorMatrix in="blurOut" result="blurOut2" type="matrix" values="0 0 0 0 0 0 0 0 0 0 0 0 0 0 0 0 0 0 .4 0"/><feOffset dx="4.0" dy="4.0" in="blurOut2" result="blurOut3"/><feBlend in="SourceGraphic" in2="blurOut3" mode="normal"/></filter></defs><g><!--MD5=[f9f6f3ad99e6e759789868766776fd4d]
cluster Observalble and Observer Interface--><polygon fill="#FFFFFF" filter="url(#f2vleg68krs6c)" points="16,6,276,6,283,29.6094,666,29.6094,666,148,16,148,16,6" style="stroke:#000000;stroke-width:1.5;"/><line style="stroke:#000000;stroke-width:1.5;" x1="16" x2="283" y1="29.6094" y2="29.6094"/><text fill="#000000" font-family="sans-serif" font-size="14" font-weight="bold" lengthAdjust="spacing" textLength="254" x="20" y="22.5332">Observalble and Observer Interface</text><!--MD5=[0c130fcfd80644542246232049151be6]
cluster Concreat Observalble--><polygon fill="#FFFFFF" filter="url(#f2vleg68krs6c)" points="119,172,279,172,286,195.6094,421,195.6094,421,454,119,454,119,172" style="stroke:#000000;stroke-width:1.5;"/><line style="stroke:#000000;stroke-width:1.5;" x1="119" x2="286" y1="195.6094" y2="195.6094"/><text fill="#000000" font-family="sans-serif" font-size="14" font-weight="bold" lengthAdjust="spacing" textLength="154" x="123" y="188.5332">Concreat Observalble</text><!--MD5=[77b77ad1c78d867038214530596296a0]
cluster Concreat Observer--><polygon fill="#FFFFFF" filter="url(#f2vleg68krs6c)" points="445,235.5,586,235.5,593,259.1094,972,259.1094,972,390.5,445,390.5,445,235.5" style="stroke:#000000;stroke-width:1.5;"/><line style="stroke:#000000;stroke-width:1.5;" x1="445" x2="593" y1="259.1094" y2="259.1094"/><text fill="#000000" font-family="sans-serif" font-size="14" font-weight="bold" lengthAdjust="spacing" textLength="135" x="449" y="252.0332">Concreat Observer</text><!--MD5=[dd3a26665c29d9ded61e639054303ffc]
class Observalble--><rect codeLine="2" fill="#FEFECE" filter="url(#f2vleg68krs6c)" height="89.5078" id="Observalble" style="stroke:#A80036;stroke-width:1.5;" width="244" x="231" y="42"/><ellipse cx="314.75" cy="58" fill="#B4A7E5" rx="11" ry="11" style="stroke:#A80036;stroke-width:1.0;"/><path d="M315.7031,54.6406 L315.7031,61.2969 L317.4219,61.2969 Q318.0313,61.2969 318.2969,61.5313 Q318.5625,61.7656 318.5625,62.1563 Q318.5625,62.5313 318.2969,62.7656 Q318.0313,63 317.4219,63 L312.2813,63 Q311.6719,63 311.4063,62.7656 Q311.1406,62.5313 311.1406,62.1406 Q311.1406,61.7656 311.4063,61.5313 Q311.6719,61.2969 312.2813,61.2969 L314,61.2969 L314,54.6406 L312.2813,54.6406 Q311.6719,54.6406 311.4063,54.4063 Q311.1406,54.1719 311.1406,53.7813 Q311.1406,53.4063 311.4063,53.1719 Q311.6719,52.9375 312.2813,52.9375 L317.4219,52.9375 Q318.0313,52.9375 318.2969,53.1719 Q318.5625,53.4063 318.5625,53.7813 Q318.5625,54.1719 318.2969,54.4063 Q318.0313,54.6406 317.4219,54.6406 L315.7031,54.6406 Z " fill="#000000"/><text fill="#000000" font-family="sans-serif" font-size="12" font-style="italic" lengthAdjust="spacing" textLength="68" x="335.25" y="62.9102">Observalble</text><line style="stroke:#A80036;stroke-width:1.5;" x1="232" x2="474" y1="74" y2="74"/><line style="stroke:#A80036;stroke-width:1.5;" x1="232" x2="474" y1="82" y2="82"/><ellipse cx="242" cy="93" fill="#84BE84" rx="3" ry="3" style="stroke:#038048;stroke-width:1.0;"/><text fill="#000000" font-family="sans-serif" font-size="11" lengthAdjust="spacing" textLength="200" x="251" y="97.4189">virtual void addObserver(Observer o) = 0</text><ellipse cx="242" cy="106.8359" fill="#84BE84" rx="3" ry="3" style="stroke:#038048;stroke-width:1.0;"/><text fill="#000000" font-family="sans-serif" font-size="11" lengthAdjust="spacing" textLength="218" x="251" y="111.2549">virtual void removeObserver(Observer o) = 0</text><ellipse cx="242" cy="120.6719" fill="#84BE84" rx="3" ry="3" style="stroke:#038048;stroke-width:1.0;"/><text fill="#000000" font-family="sans-serif" font-size="11" lengthAdjust="spacing" textLength="160" x="251" y="125.0908">virtual void notifyObservers() = 0</text><path d="M32,60.5 L32,103.2031 A0,0 0 0 0 32,103.2031 L196,103.2031 A0,0 0 0 0 196,103.2031 L196,85.8516 L235,120.5898 L196,77.8516 L196,70.5 L186,60.5 L32,60.5 A0,0 0 0 0 32,60.5 " fill="#FBFB77" filter="url(#f2vleg68krs6c)" style="stroke:#A80036;stroke-width:1.0;"/><path d="M186,60.5 L186,70.5 L196,70.5 L186,60.5 " fill="#FBFB77" style="stroke:#A80036;stroke-width:1.0;"/><text fill="#000000" font-family="sans-serif" font-size="13" lengthAdjust="spacing" textLength="143" x="38" y="78.9951">for observer in observers,</text><text fill="#000000" font-family="sans-serif" font-size="13" lengthAdjust="spacing" textLength="123" x="38" y="95.3467">call observer.update()</text><!--MD5=[d40932010816485ec57b44b6eea2392a]
class Observer--><rect codeLine="12" fill="#FEFECE" filter="url(#f2vleg68krs6c)" height="61.8359" id="Observer" style="stroke:#A80036;stroke-width:1.5;" width="140" x="510" y="56"/><ellipse cx="550.65" cy="72" fill="#B4A7E5" rx="11" ry="11" style="stroke:#A80036;stroke-width:1.0;"/><path d="M551.6031,68.6406 L551.6031,75.2969 L553.3219,75.2969 Q553.9313,75.2969 554.1969,75.5313 Q554.4625,75.7656 554.4625,76.1563 Q554.4625,76.5313 554.1969,76.7656 Q553.9313,77 553.3219,77 L548.1813,77 Q547.5719,77 547.3063,76.7656 Q547.0406,76.5313 547.0406,76.1406 Q547.0406,75.7656 547.3063,75.5313 Q547.5719,75.2969 548.1813,75.2969 L549.9,75.2969 L549.9,68.6406 L548.1813,68.6406 Q547.5719,68.6406 547.3063,68.4063 Q547.0406,68.1719 547.0406,67.7813 Q547.0406,67.4063 547.3063,67.1719 Q547.5719,66.9375 548.1813,66.9375 L553.3219,66.9375 Q553.9313,66.9375 554.1969,67.1719 Q554.4625,67.4063 554.4625,67.7813 Q554.4625,68.1719 554.1969,68.4063 Q553.9313,68.6406 553.3219,68.6406 L551.6031,68.6406 Z " fill="#000000"/><text fill="#000000" font-family="sans-serif" font-size="12" font-style="italic" lengthAdjust="spacing" textLength="51" x="570.35" y="76.9102">Observer</text><line style="stroke:#A80036;stroke-width:1.5;" x1="511" x2="649" y1="88" y2="88"/><line style="stroke:#A80036;stroke-width:1.5;" x1="511" x2="649" y1="96" y2="96"/><ellipse cx="521" cy="107" fill="#84BE84" rx="3" ry="3" style="stroke:#038048;stroke-width:1.0;"/><text fill="#000000" font-family="sans-serif" font-size="11" lengthAdjust="spacing" textLength="114" x="530" y="111.4189">virutal void update() = 0</text><!--MD5=[dd430b671f247037c3d3af64e9fb01da]
class WeatherData--><rect codeLine="20" fill="#FEFECE" filter="url(#f2vleg68krs6c)" height="230.0313" id="WeatherData" style="stroke:#A80036;stroke-width:1.5;" width="269" x="135.5" y="208"/><ellipse cx="229.75" cy="224" fill="#ADD1B2" rx="11" ry="11" style="stroke:#A80036;stroke-width:1.0;"/><path d="M232.5156,219.875 Q232.6719,219.6563 232.8594,219.5469 Q233.0469,219.4375 233.2656,219.4375 Q233.6406,219.4375 233.875,219.6953 Q234.1094,219.9531 234.1094,220.5625 L234.1094,222.0156 Q234.1094,222.625 233.875,222.8906 Q233.6406,223.1563 233.2656,223.1563 Q232.9219,223.1563 232.7188,222.9531 Q232.5156,222.7656 232.4063,222.25 Q232.3594,221.8906 232.1719,221.7031 Q231.8438,221.3281 231.2344,221.1094 Q230.625,220.8906 230,220.8906 Q229.2344,220.8906 228.6016,221.2188 Q227.9688,221.5469 227.4766,222.2969 Q226.9844,223.0469 226.9844,224.0781 L226.9844,225.1719 Q226.9844,226.4063 227.875,227.2266 Q228.7656,228.0469 230.3594,228.0469 Q231.2969,228.0469 231.9531,227.7969 Q232.3438,227.6406 232.7656,227.2031 Q233.0313,226.9375 233.1797,226.8594 Q233.3281,226.7813 233.5313,226.7813 Q233.8594,226.7813 234.1172,227.0391 Q234.375,227.2969 234.375,227.6406 Q234.375,227.9844 234.0313,228.3906 Q233.5313,228.9688 232.7344,229.2969 Q231.6563,229.75 230.3594,229.75 Q228.8438,229.75 227.6406,229.125 Q226.6563,228.625 225.9688,227.5547 Q225.2813,226.4844 225.2813,225.2031 L225.2813,224.0469 Q225.2813,222.7188 225.8984,221.5703 Q226.5156,220.4219 227.6094,219.8047 Q228.7031,219.1875 229.9375,219.1875 Q230.6719,219.1875 231.3203,219.3516 Q231.9688,219.5156 232.5156,219.875 Z " fill="#000000"/><text fill="#000000" font-family="sans-serif" font-size="12" lengthAdjust="spacing" textLength="72" x="250.25" y="228.9102">WeatherData</text><line style="stroke:#A80036;stroke-width:1.5;" x1="136.5" x2="403.5" y1="240" y2="240"/><rect fill="none" height="6" style="stroke:#C82930;stroke-width:1.0;" width="6" x="143.5" y="248"/><text fill="#000000" font-family="sans-serif" font-size="11" lengthAdjust="spacing" textLength="96" x="155.5" y="255.4189">float m_temperature</text><rect fill="none" height="6" style="stroke:#C82930;stroke-width:1.0;" width="6" x="143.5" y="261.8359"/><text fill="#000000" font-family="sans-serif" font-size="11" lengthAdjust="spacing" textLength="77" x="155.5" y="269.2549">float m_humidity</text><rect fill="none" height="6" style="stroke:#C82930;stroke-width:1.0;" width="6" x="143.5" y="275.6719"/><text fill="#000000" font-family="sans-serif" font-size="11" lengthAdjust="spacing" textLength="82" x="155.5" y="283.0908">float m_pressure</text><rect fill="none" height="6" style="stroke:#C82930;stroke-width:1.0;" width="6" x="143.5" y="289.5078"/><text fill="#000000" font-family="sans-serif" font-size="11" lengthAdjust="spacing" textLength="160" x="155.5" y="296.9268">std::list&lt;Observer*&gt;m_observers</text><line style="stroke:#A80036;stroke-width:1.0;" x1="136.5" x2="403.5" y1="303.3438" y2="303.3438"/><ellipse cx="146.5" cy="314.3438" fill="#84BE84" rx="3" ry="3" style="stroke:#038048;stroke-width:1.0;"/><text fill="#000000" font-family="sans-serif" font-size="11" lengthAdjust="spacing" textLength="153" x="155.5" y="318.7627">void addObserver (Observer o)</text><ellipse cx="146.5" cy="328.1797" fill="#84BE84" rx="3" ry="3" style="stroke:#038048;stroke-width:1.0;"/><text fill="#000000" font-family="sans-serif" font-size="11" lengthAdjust="spacing" textLength="168" x="155.5" y="332.5986">void removeObserver(Observer o)</text><ellipse cx="146.5" cy="342.0156" fill="#84BE84" rx="3" ry="3" style="stroke:#038048;stroke-width:1.0;"/><text fill="#000000" font-family="sans-serif" font-size="11" lengthAdjust="spacing" textLength="110" x="155.5" y="346.4346">void notifyObservers()</text><line style="stroke:#A80036;stroke-width:1.0;stroke-dasharray:1.0,2.0;" x1="136.5" x2="403.5" y1="352.8516" y2="352.8516"/><ellipse cx="146.5" cy="363.8516" fill="#84BE84" rx="3" ry="3" style="stroke:#038048;stroke-width:1.0;"/><text fill="#000000" font-family="sans-serif" font-size="11" lengthAdjust="spacing" textLength="139" x="155.5" y="368.2705">void measurementChanged()</text><ellipse cx="146.5" cy="377.6875" fill="#84BE84" rx="3" ry="3" style="stroke:#038048;stroke-width:1.0;"/><text fill="#000000" font-family="sans-serif" font-size="11" lengthAdjust="spacing" textLength="243" x="155.5" y="382.1064">setWeatherData(float temp, float humid, float pres)</text><ellipse cx="146.5" cy="391.5234" fill="#84BE84" rx="3" ry="3" style="stroke:#038048;stroke-width:1.0;"/><text fill="#000000" font-family="sans-serif" font-size="11" lengthAdjust="spacing" textLength="108" x="155.5" y="395.9424">float getTemperature()</text><ellipse cx="146.5" cy="405.3594" fill="#84BE84" rx="3" ry="3" style="stroke:#038048;stroke-width:1.0;"/><text fill="#000000" font-family="sans-serif" font-size="11" lengthAdjust="spacing" textLength="87" x="155.5" y="409.7783">float getHumidity()</text><ellipse cx="146.5" cy="419.1953" fill="#84BE84" rx="3" ry="3" style="stroke:#038048;stroke-width:1.0;"/><text fill="#000000" font-family="sans-serif" font-size="11" lengthAdjust="spacing" textLength="91" x="155.5" y="423.6143">float getPressure()</text><line style="stroke:#A80036;stroke-width:1.0;stroke-dasharray:1.0,2.0;" x1="136.5" x2="403.5" y1="430.0313" y2="430.0313"/><!--MD5=[18075c0e13b7aebd3bfac330615db09f]
class CurrentDisplay--><rect codeLine="46" fill="#FEFECE" filter="url(#f2vleg68krs6c)" height="103.3438" id="CurrentDisplay" style="stroke:#A80036;stroke-width:1.5;" width="238" x="461" y="271.5"/><ellipse cx="534.75" cy="287.5" fill="#ADD1B2" rx="11" ry="11" style="stroke:#A80036;stroke-width:1.0;"/><path d="M537.5156,283.375 Q537.6719,283.1563 537.8594,283.0469 Q538.0469,282.9375 538.2656,282.9375 Q538.6406,282.9375 538.875,283.1953 Q539.1094,283.4531 539.1094,284.0625 L539.1094,285.5156 Q539.1094,286.125 538.875,286.3906 Q538.6406,286.6563 538.2656,286.6563 Q537.9219,286.6563 537.7188,286.4531 Q537.5156,286.2656 537.4063,285.75 Q537.3594,285.3906 537.1719,285.2031 Q536.8438,284.8281 536.2344,284.6094 Q535.625,284.3906 535,284.3906 Q534.2344,284.3906 533.6016,284.7188 Q532.9688,285.0469 532.4766,285.7969 Q531.9844,286.5469 531.9844,287.5781 L531.9844,288.6719 Q531.9844,289.9063 532.875,290.7266 Q533.7656,291.5469 535.3594,291.5469 Q536.2969,291.5469 536.9531,291.2969 Q537.3438,291.1406 537.7656,290.7031 Q538.0313,290.4375 538.1797,290.3594 Q538.3281,290.2813 538.5313,290.2813 Q538.8594,290.2813 539.1172,290.5391 Q539.375,290.7969 539.375,291.1406 Q539.375,291.4844 539.0313,291.8906 Q538.5313,292.4688 537.7344,292.7969 Q536.6563,293.25 535.3594,293.25 Q533.8438,293.25 532.6406,292.625 Q531.6563,292.125 530.9688,291.0547 Q530.2813,289.9844 530.2813,288.7031 L530.2813,287.5469 Q530.2813,286.2188 530.8984,285.0703 Q531.5156,283.9219 532.6094,283.3047 Q533.7031,282.6875 534.9375,282.6875 Q535.6719,282.6875 536.3203,282.8516 Q536.9688,283.0156 537.5156,283.375 Z " fill="#000000"/><text fill="#000000" font-family="sans-serif" font-size="12" lengthAdjust="spacing" textLength="82" x="555.25" y="292.4102">CurrentDisplay</text><line style="stroke:#A80036;stroke-width:1.5;" x1="462" x2="698" y1="303.5" y2="303.5"/><rect fill="none" height="6" style="stroke:#C82930;stroke-width:1.0;" width="6" x="469" y="311.5"/><text fill="#000000" font-family="sans-serif" font-size="11" lengthAdjust="spacing" textLength="147" x="481" y="318.9189">WeatherData* m_weatherData</text><line style="stroke:#A80036;stroke-width:1.5;" x1="462" x2="698" y1="325.3359" y2="325.3359"/><ellipse cx="472" cy="336.3359" fill="#84BE84" rx="3" ry="3" style="stroke:#038048;stroke-width:1.0;"/><text fill="#000000" font-family="sans-serif" font-size="11" lengthAdjust="spacing" textLength="212" x="481" y="340.7549">CurrentDisplay(WeatherData* weatherData)</text><ellipse cx="472" cy="350.1719" fill="#84BE84" rx="3" ry="3" style="stroke:#038048;stroke-width:1.0;"/><text fill="#000000" font-family="sans-serif" font-size="11" lengthAdjust="spacing" textLength="64" x="481" y="354.5908">void update()</text><ellipse cx="472" cy="364.0078" fill="#84BE84" rx="3" ry="3" style="stroke:#038048;stroke-width:1.0;"/><text fill="#000000" font-family="sans-serif" font-size="11" lengthAdjust="spacing" textLength="65" x="481" y="368.4268">void display()</text><!--MD5=[0a5faaa013c9c31500bdda905c4c71c2]
class StatDisplay--><rect codeLine="53" fill="#FEFECE" filter="url(#f2vleg68krs6c)" height="103.3438" id="StatDisplay" style="stroke:#A80036;stroke-width:1.5;" width="221" x="734.5" y="271.5"/><ellipse cx="809.75" cy="287.5" fill="#ADD1B2" rx="11" ry="11" style="stroke:#A80036;stroke-width:1.0;"/><path d="M812.5156,283.375 Q812.6719,283.1563 812.8594,283.0469 Q813.0469,282.9375 813.2656,282.9375 Q813.6406,282.9375 813.875,283.1953 Q814.1094,283.4531 814.1094,284.0625 L814.1094,285.5156 Q814.1094,286.125 813.875,286.3906 Q813.6406,286.6563 813.2656,286.6563 Q812.9219,286.6563 812.7188,286.4531 Q812.5156,286.2656 812.4063,285.75 Q812.3594,285.3906 812.1719,285.2031 Q811.8438,284.8281 811.2344,284.6094 Q810.625,284.3906 810,284.3906 Q809.2344,284.3906 808.6016,284.7188 Q807.9688,285.0469 807.4766,285.7969 Q806.9844,286.5469 806.9844,287.5781 L806.9844,288.6719 Q806.9844,289.9063 807.875,290.7266 Q808.7656,291.5469 810.3594,291.5469 Q811.2969,291.5469 811.9531,291.2969 Q812.3438,291.1406 812.7656,290.7031 Q813.0313,290.4375 813.1797,290.3594 Q813.3281,290.2813 813.5313,290.2813 Q813.8594,290.2813 814.1172,290.5391 Q814.375,290.7969 814.375,291.1406 Q814.375,291.4844 814.0313,291.8906 Q813.5313,292.4688 812.7344,292.7969 Q811.6563,293.25 810.3594,293.25 Q808.8438,293.25 807.6406,292.625 Q806.6563,292.125 805.9688,291.0547 Q805.2813,289.9844 805.2813,288.7031 L805.2813,287.5469 Q805.2813,286.2188 805.8984,285.0703 Q806.5156,283.9219 807.6094,283.3047 Q808.7031,282.6875 809.9375,282.6875 Q810.6719,282.6875 811.3203,282.8516 Q811.9688,283.0156 812.5156,283.375 Z " fill="#000000"/><text fill="#000000" font-family="sans-serif" font-size="12" lengthAdjust="spacing" textLength="62" x="830.25" y="292.4102">StatDisplay</text><line style="stroke:#A80036;stroke-width:1.5;" x1="735.5" x2="954.5" y1="303.5" y2="303.5"/><rect fill="none" height="6" style="stroke:#C82930;stroke-width:1.0;" width="6" x="742.5" y="311.5"/><text fill="#000000" font-family="sans-serif" font-size="11" lengthAdjust="spacing" textLength="147" x="754.5" y="318.9189">WeatherData* m_weatherData</text><line style="stroke:#A80036;stroke-width:1.5;" x1="735.5" x2="954.5" y1="325.3359" y2="325.3359"/><ellipse cx="745.5" cy="336.3359" fill="#84BE84" rx="3" ry="3" style="stroke:#038048;stroke-width:1.0;"/><text fill="#000000" font-family="sans-serif" font-size="11" lengthAdjust="spacing" textLength="195" x="754.5" y="340.7549">StatDisplay(WeatherData* weatherData)</text><ellipse cx="745.5" cy="350.1719" fill="#84BE84" rx="3" ry="3" style="stroke:#038048;stroke-width:1.0;"/><text fill="#000000" font-family="sans-serif" font-size="11" lengthAdjust="spacing" textLength="64" x="754.5" y="354.5908">void update()</text><ellipse cx="745.5" cy="364.0078" fill="#84BE84" rx="3" ry="3" style="stroke:#038048;stroke-width:1.0;"/><text fill="#000000" font-family="sans-serif" font-size="11" lengthAdjust="spacing" textLength="65" x="754.5" y="368.4268">void display()</text><!--MD5=[297a0fef87b4e1353b7422f9b4d8cc2e]
class DisplayElement--><rect codeLine="73" fill="#FEFECE" filter="url(#f2vleg68krs6c)" height="61.8359" id="DisplayElement" style="stroke:#A80036;stroke-width:1.5;" width="141" x="730.5" y="56"/><ellipse cx="755.4" cy="72" fill="#B4A7E5" rx="11" ry="11" style="stroke:#A80036;stroke-width:1.0;"/><path d="M756.3531,68.6406 L756.3531,75.2969 L758.0719,75.2969 Q758.6813,75.2969 758.9469,75.5313 Q759.2125,75.7656 759.2125,76.1563 Q759.2125,76.5313 758.9469,76.7656 Q758.6813,77 758.0719,77 L752.9313,77 Q752.3219,77 752.0563,76.7656 Q751.7906,76.5313 751.7906,76.1406 Q751.7906,75.7656 752.0563,75.5313 Q752.3219,75.2969 752.9313,75.2969 L754.65,75.2969 L754.65,68.6406 L752.9313,68.6406 Q752.3219,68.6406 752.0563,68.4063 Q751.7906,68.1719 751.7906,67.7813 Q751.7906,67.4063 752.0563,67.1719 Q752.3219,66.9375 752.9313,66.9375 L758.0719,66.9375 Q758.6813,66.9375 758.9469,67.1719 Q759.2125,67.4063 759.2125,67.7813 Q759.2125,68.1719 758.9469,68.4063 Q758.6813,68.6406 758.0719,68.6406 L756.3531,68.6406 Z " fill="#000000"/><text fill="#000000" font-family="sans-serif" font-size="12" font-style="italic" lengthAdjust="spacing" textLength="87" x="771.6" y="76.9102">DisplayElement</text><line style="stroke:#A80036;stroke-width:1.5;" x1="731.5" x2="870.5" y1="88" y2="88"/><line style="stroke:#A80036;stroke-width:1.5;" x1="731.5" x2="870.5" y1="96" y2="96"/><ellipse cx="741.5" cy="107" fill="#84BE84" rx="3" ry="3" style="stroke:#038048;stroke-width:1.0;"/><text fill="#000000" font-family="sans-serif" font-size="11" lengthAdjust="spacing" textLength="115" x="750.5" y="111.4189">virtual void display() = 0</text><!--MD5=[e17aec03fa89ce09854c00a062f7bcb1]
link Observalble$$$LEFT to Observalble--><!--MD5=[19fb5ac0656c79503d3ff577c85bc97d]
reverse link Observalble to WeatherData--><path d="M330.61,151.12 C324.41,168.61 317.48,188.15 310.58,207.6 " fill="none" id="Observalble-backto-WeatherData" style="stroke:#A80036;stroke-width:1.0;stroke-dasharray:7.0,7.0;"/><polygon fill="none" points="324.11,148.52,337.39,132.01,337.3,153.2,324.11,148.52" style="stroke:#A80036;stroke-width:1.0;"/><!--MD5=[3440b2a810d42ff4614b11700f0d9778]
reverse link Observer to CurrentDisplay--><path d="M580,138.22 C580,177.57 580,232.08 580,271.5 " fill="none" id="Observer-backto-CurrentDisplay" style="stroke:#A80036;stroke-width:1.0;stroke-dasharray:7.0,7.0;"/><polygon fill="none" points="573,138.11,580,118.11,587,138.11,573,138.11" style="stroke:#A80036;stroke-width:1.0;"/><!--MD5=[9cbb3179d2a0daab2d013e46b5d1d5cb]
reverse link Observer to StatDisplay--><path d="M663.82,127.8 C682.22,138.33 700.98,150.55 717,164 C754.05,195.09 788.1,238.15 811.75,271.47 " fill="none" id="Observer-backto-StatDisplay" style="stroke:#A80036;stroke-width:1.0;stroke-dasharray:7.0,7.0;"/><polygon fill="none" points="660.19,133.8,646.01,118.06,666.92,121.52,660.19,133.8" style="stroke:#A80036;stroke-width:1.0;"/><!--MD5=[e27f4fdeb15dc2b440642eff8d8c808e]
link Observalble to Observer--><path codeLine="79" d="M475.37,120.54 C485.11,120.09 494.86,118.89 504.6,116.95 " fill="none" id="Observalble-to-Observer" style="stroke:#A80036;stroke-width:1.0;"/><polygon fill="#A80036" points="509.7,115.86,500.0633,113.8269,504.8102,116.9037,501.7333,121.6506,509.7,115.86" style="stroke:#A80036;stroke-width:1.0;"/><text fill="#000000" font-family="sans-serif" font-size="13" lengthAdjust="spacing" textLength="20" x="482.0464" y="115.3679">0..*</text><!--MD5=[e27f4fdeb15dc2b440642eff8d8c808e]
link Observalble to Observer--><!--MD5=[005957867990d6d85e4acd49c7f3411a]
link CurrentDisplay to WeatherData--><path codeLine="80" d="M460.86,323 C443.9,323 426.94,323 409.98,323 " fill="none" id="CurrentDisplay-to-WeatherData" style="stroke:#A80036;stroke-width:1.0;"/><polygon fill="#A80036" points="404.72,323,413.72,327,409.72,323,413.72,319,404.72,323" style="stroke:#A80036;stroke-width:1.0;"/><!--MD5=[90d7bb2c89f029fd8597f6501ff3af9b]
link WeatherData to CurrentDisplay--><!--MD5=[79928ce0e192e747d651fadb8748356e]
link StatDisplay to WeatherData--><path codeLine="81" d="M816.12,271.23 C793.65,235.71 759.21,190.4 717,164 C707.98,158.36 704.24,159.86 693.67,158.67 C668.79,155.86 493.21,155.86 468.33,158.67 C431.7,162.8 398.09,181.32 369.36,204.52 " fill="none" id="StatDisplay-to-WeatherData" style="stroke:#A80036;stroke-width:1.0;"/><polygon fill="#A80036" points="365.15,207.98,374.6364,205.3328,369.0051,204.796,369.542,199.1646,365.15,207.98" style="stroke:#A80036;stroke-width:1.0;"/><!--MD5=[097f5c46ffd81586910632614bfd30ae]
reverse link DisplayElement to CurrentDisplay--><path codeLine="85" d="M750.77,131.64 C739.41,141.99 727.59,153.18 717,164 C683.34,198.37 647.83,239.49 621.39,271.16 " fill="none" id="DisplayElement-backto-CurrentDisplay" style="stroke:#A80036;stroke-width:1.0;stroke-dasharray:7.0,7.0;"/><polygon fill="none" points="746.23,126.3,765.79,118.15,755.59,136.72,746.23,126.3" style="stroke:#A80036;stroke-width:1.0;"/><!--MD5=[9a905cc3f136aae36cd70b3a8603fdff]
reverse link DisplayElement to StatDisplay--><path codeLine="86" d="M810.39,137.95 C817.8,177.32 828.07,231.98 835.5,271.5 " fill="none" id="DisplayElement-backto-StatDisplay" style="stroke:#A80036;stroke-width:1.0;stroke-dasharray:7.0,7.0;"/><polygon fill="none" points="803.48,139.06,806.66,118.11,817.24,136.47,803.48,139.06" style="stroke:#A80036;stroke-width:1.0;"/><!--MD5=[e8761cef1c043b3365422dea2d9b00a5]
link CurrentDisplay to StatDisplay--><!--MD5=[0e46afb48413d72d9b01e353fc4282c3]
@startuml Observer Pattern
package "Observalble and Observer Interface" {
    Interface Observalble{
        + virtual void addObserver(Observer o) = 0
        + virtual void removeObserver(Observer o) = 0
        + virtual void notifyObservers() = 0
    }
    note left of Observalble::notifyObservers
    for observer in observers,
    call observer.update()
    end note

    Interface Observer{
        + virutal void update() = 0
    }
}



package "Concreat Observalble"{
class WeatherData implements  Observalble{
    ' store the weather data from weather station
    - float m_temperature
    - float m_humidity
    - float m_pressure
    ' store all the observers' pointer in list for nothify when weather data changed
    - std::list<Observer*>m_observers 
    - -
    + void addObserver (Observer o)
    + void removeObserver(Observer o) 
    + void notifyObservers()
    ..
    ' when weather data changed, this method will be invoked
    + void measurementChanged()
    ' simulate weaher data changed
    + setWeatherData(float temp, float humid, float pres)
    ' get method for Observer use
    + float getTemperature()
    + float getHumidity()
    + float getPressure()
    ' new get method can be add for future requirement
    ..
}
}

package "Concreat Observer"{
    class CurrentDisplay implements Observer{
        - WeatherData* m_weatherData
        + CurrentDisplay(WeatherData* weatherData)
        + void update()
        + void display()
    }

    class StatDisplay implements Observer{
        - WeatherData* m_weatherData
        + StatDisplay(WeatherData* weatherData)
        + void update()
        + void display()
    }
}
' class ForecastDisplay implements Observer, DisplayElement{
'     - WeatherData* m_weatherData
'     + ForecastDisplay(WeatherData* weatherData)
'     + void update()
'     + void display()
' }
' class ThirdPartyDisplay implements Observer, DisplayElement{
'     - WeatherData* m_weatherData
'     + ThirdPartyDisplay(WeatherData* weatherData)
'     + void update()
'     + void display()
' }

Interface DisplayElement{
    + virtual void display() = 0
    
}


Observalble - ->"0..*" Observer
CurrentDisplay - -> WeatherData
StatDisplay - -> WeatherData
'ForecastDisplay - -> WeatherData
'ThirdPartyDisplay - -> WeatherData

DisplayElement <|.. CurrentDisplay
DisplayElement <|.. StatDisplay

'Layout modify
Observalble -[hidden]> Observer 

WeatherData -[hidden]> CurrentDisplay
CurrentDisplay -[hidden]> StatDisplay 


@enduml

@startuml Observer Pattern
package "Observalble and Observer Interface" {
    Interface Observalble{
        + virtual void addObserver(Observer o) = 0
        + virtual void removeObserver(Observer o) = 0
        + virtual void notifyObservers() = 0
    }
    note left of Observalble::notifyObservers
    for observer in observers,
    call observer.update()
    end note

    Interface Observer{
        + virutal void update() = 0
    }
}



package "Concreat Observalble"{
class WeatherData implements  Observalble{
    - float m_temperature
    - float m_humidity
    - float m_pressure
    - std::list<Observer*>m_observers 
    - -
    + void addObserver (Observer o)
    + void removeObserver(Observer o) 
    + void notifyObservers()
    ..
    + void measurementChanged()
    + setWeatherData(float temp, float humid, float pres)
    + float getTemperature()
    + float getHumidity()
    + float getPressure()
    ..
}
}

package "Concreat Observer"{
    class CurrentDisplay implements Observer{
        - WeatherData* m_weatherData
        + CurrentDisplay(WeatherData* weatherData)
        + void update()
        + void display()
    }

    class StatDisplay implements Observer{
        - WeatherData* m_weatherData
        + StatDisplay(WeatherData* weatherData)
        + void update()
        + void display()
    }
}

Interface DisplayElement{
    + virtual void display() = 0
    
}


Observalble - ->"0..*" Observer
CurrentDisplay - -> WeatherData
StatDisplay - -> WeatherData

DisplayElement <|.. CurrentDisplay
DisplayElement <|.. StatDisplay

Observalble -[hidden]> Observer 

WeatherData -[hidden]> CurrentDisplay
CurrentDisplay -[hidden]> StatDisplay 


@enduml

PlantUML version 1.2021.12(Wed Oct 06 00:01:58 CST 2021)
(GPL source distribution)
Java Runtime: Java(TM) SE Runtime Environment
JVM: Java HotSpot(TM) Client VM
Default Encoding: Cp1252
Language: en
Country: US
--></g></svg>