<?xml version="1.0" encoding="UTF-8" standalone="no"?><svg xmlns="http://www.w3.org/2000/svg" xmlns:xlink="http://www.w3.org/1999/xlink" contentScriptType="application/ecmascript" contentStyleType="text/css" height="527px" preserveAspectRatio="none" style="width:989px;height:527px;background:#FFFFFF;" version="1.1" viewBox="0 0 989 527" width="989px" zoomAndPan="magnify"><defs><filter height="300%" id="f1143aqx4drvb8" width="300%" x="-1" y="-1"><feGaussianBlur result="blurOut" stdDeviation="2.0"/><feColorMatrix in="blurOut" result="blurOut2" type="matrix" values="0 0 0 0 0 0 0 0 0 0 0 0 0 0 0 0 0 0 .4 0"/><feOffset dx="4.0" dy="4.0" in="blurOut2" result="blurOut3"/><feBlend in="SourceGraphic" in2="blurOut3" mode="normal"/></filter></defs><g><!--MD5=[f9f6f3ad99e6e759789868766776fd4d]
cluster Observalble and Observer Interface--><polygon fill="#FFFFFF" filter="url(#f1143aqx4drvb8)" points="16,6,276,6,283,29.6094,666,29.6094,666,168,16,168,16,6" style="stroke:#000000;stroke-width:1.5;"/><line style="stroke:#000000;stroke-width:1.5;" x1="16" x2="283" y1="29.6094" y2="29.6094"/><text fill="#000000" font-family="sans-serif" font-size="14" font-weight="bold" lengthAdjust="spacing" textLength="254" x="20" y="22.5332">Observalble and Observer Interface</text><!--MD5=[0c130fcfd80644542246232049151be6]
cluster Concreat Observalble--><polygon fill="#FFFFFF" filter="url(#f1143aqx4drvb8)" points="107,218,267,218,274,241.6094,409,241.6094,409,520,107,520,107,218" style="stroke:#000000;stroke-width:1.5;"/><line style="stroke:#000000;stroke-width:1.5;" x1="107" x2="274" y1="241.6094" y2="241.6094"/><text fill="#000000" font-family="sans-serif" font-size="14" font-weight="bold" lengthAdjust="spacing" textLength="154" x="111" y="234.5332">Concreat Observalble</text><!--MD5=[77b77ad1c78d867038214530596296a0]
cluster Concreat Observer--><polygon fill="#FFFFFF" filter="url(#f1143aqx4drvb8)" points="445,281.5,586,281.5,593,305.1094,972,305.1094,972,456.5,445,456.5,445,281.5" style="stroke:#000000;stroke-width:1.5;"/><line style="stroke:#000000;stroke-width:1.5;" x1="445" x2="593" y1="305.1094" y2="305.1094"/><text fill="#000000" font-family="sans-serif" font-size="14" font-weight="bold" lengthAdjust="spacing" textLength="135" x="449" y="298.0332">Concreat Observer</text><!--MD5=[dd3a26665c29d9ded61e639054303ffc]
class Observalble--><rect codeLine="2" fill="#FEFECE" filter="url(#f1143aqx4drvb8)" height="89.5078" id="Observalble" style="stroke:#A80036;stroke-width:1.5;" width="244" x="231" y="62"/><ellipse cx="314.75" cy="78" fill="#B4A7E5" rx="11" ry="11" style="stroke:#A80036;stroke-width:1.0;"/><path d="M315.7031,74.6406 L315.7031,81.2969 L317.4219,81.2969 Q318.0313,81.2969 318.2969,81.5313 Q318.5625,81.7656 318.5625,82.1563 Q318.5625,82.5313 318.2969,82.7656 Q318.0313,83 317.4219,83 L312.2813,83 Q311.6719,83 311.4063,82.7656 Q311.1406,82.5313 311.1406,82.1406 Q311.1406,81.7656 311.4063,81.5313 Q311.6719,81.2969 312.2813,81.2969 L314,81.2969 L314,74.6406 L312.2813,74.6406 Q311.6719,74.6406 311.4063,74.4063 Q311.1406,74.1719 311.1406,73.7813 Q311.1406,73.4063 311.4063,73.1719 Q311.6719,72.9375 312.2813,72.9375 L317.4219,72.9375 Q318.0313,72.9375 318.2969,73.1719 Q318.5625,73.4063 318.5625,73.7813 Q318.5625,74.1719 318.2969,74.4063 Q318.0313,74.6406 317.4219,74.6406 L315.7031,74.6406 Z " fill="#000000"/><text fill="#000000" font-family="sans-serif" font-size="12" font-style="italic" lengthAdjust="spacing" textLength="68" x="335.25" y="82.9102">Observalble</text><line style="stroke:#A80036;stroke-width:1.5;" x1="232" x2="474" y1="94" y2="94"/><line style="stroke:#A80036;stroke-width:1.5;" x1="232" x2="474" y1="102" y2="102"/><ellipse cx="242" cy="113" fill="#84BE84" rx="3" ry="3" style="stroke:#038048;stroke-width:1.0;"/><text fill="#000000" font-family="sans-serif" font-size="11" lengthAdjust="spacing" textLength="200" x="251" y="117.4189">virtual void addObserver(Observer o) = 0</text><ellipse cx="242" cy="126.8359" fill="#84BE84" rx="3" ry="3" style="stroke:#038048;stroke-width:1.0;"/><text fill="#000000" font-family="sans-serif" font-size="11" lengthAdjust="spacing" textLength="218" x="251" y="131.2549">virtual void removeObserver(Observer o) = 0</text><ellipse cx="242" cy="140.6719" fill="#84BE84" rx="3" ry="3" style="stroke:#038048;stroke-width:1.0;"/><text fill="#000000" font-family="sans-serif" font-size="11" lengthAdjust="spacing" textLength="160" x="251" y="145.0908">virtual void notifyObservers() = 0</text><path d="M32,80.5 L32,123.2031 A0,0 0 0 0 32,123.2031 L196,123.2031 A0,0 0 0 0 196,123.2031 L196,105.8516 L235,140.5898 L196,97.8516 L196,90.5 L186,80.5 L32,80.5 A0,0 0 0 0 32,80.5 " fill="#FBFB77" filter="url(#f1143aqx4drvb8)" style="stroke:#A80036;stroke-width:1.0;"/><path d="M186,80.5 L186,90.5 L196,90.5 L186,80.5 " fill="#FBFB77" style="stroke:#A80036;stroke-width:1.0;"/><text fill="#000000" font-family="sans-serif" font-size="13" lengthAdjust="spacing" textLength="143" x="38" y="98.9951">for observer in observers,</text><text fill="#000000" font-family="sans-serif" font-size="13" lengthAdjust="spacing" textLength="123" x="54" y="115.3467">call observer.update()</text><!--MD5=[d40932010816485ec57b44b6eea2392a]
class Observer--><rect codeLine="12" fill="#FEFECE" filter="url(#f1143aqx4drvb8)" height="61.8359" id="Observer" style="stroke:#A80036;stroke-width:1.5;" width="140" x="510" y="76"/><ellipse cx="550.65" cy="92" fill="#B4A7E5" rx="11" ry="11" style="stroke:#A80036;stroke-width:1.0;"/><path d="M551.6031,88.6406 L551.6031,95.2969 L553.3219,95.2969 Q553.9313,95.2969 554.1969,95.5313 Q554.4625,95.7656 554.4625,96.1563 Q554.4625,96.5313 554.1969,96.7656 Q553.9313,97 553.3219,97 L548.1813,97 Q547.5719,97 547.3063,96.7656 Q547.0406,96.5313 547.0406,96.1406 Q547.0406,95.7656 547.3063,95.5313 Q547.5719,95.2969 548.1813,95.2969 L549.9,95.2969 L549.9,88.6406 L548.1813,88.6406 Q547.5719,88.6406 547.3063,88.4063 Q547.0406,88.1719 547.0406,87.7813 Q547.0406,87.4063 547.3063,87.1719 Q547.5719,86.9375 548.1813,86.9375 L553.3219,86.9375 Q553.9313,86.9375 554.1969,87.1719 Q554.4625,87.4063 554.4625,87.7813 Q554.4625,88.1719 554.1969,88.4063 Q553.9313,88.6406 553.3219,88.6406 L551.6031,88.6406 Z " fill="#000000"/><text fill="#000000" font-family="sans-serif" font-size="12" font-style="italic" lengthAdjust="spacing" textLength="51" x="570.35" y="96.9102">Observer</text><line style="stroke:#A80036;stroke-width:1.5;" x1="511" x2="649" y1="108" y2="108"/><line style="stroke:#A80036;stroke-width:1.5;" x1="511" x2="649" y1="116" y2="116"/><ellipse cx="521" cy="127" fill="#84BE84" rx="3" ry="3" style="stroke:#038048;stroke-width:1.0;"/><text fill="#000000" font-family="sans-serif" font-size="11" lengthAdjust="spacing" textLength="114" x="530" y="131.4189">virutal void update() = 0</text><!--MD5=[dd430b671f247037c3d3af64e9fb01da]
class WeatherData--><rect codeLine="20" fill="#FEFECE" filter="url(#f1143aqx4drvb8)" height="230.0313" id="WeatherData" style="stroke:#A80036;stroke-width:1.5;" width="269" x="123.5" y="274"/><ellipse cx="217.75" cy="290" fill="#ADD1B2" rx="11" ry="11" style="stroke:#A80036;stroke-width:1.0;"/><path d="M220.5156,285.875 Q220.6719,285.6563 220.8594,285.5469 Q221.0469,285.4375 221.2656,285.4375 Q221.6406,285.4375 221.875,285.6953 Q222.1094,285.9531 222.1094,286.5625 L222.1094,288.0156 Q222.1094,288.625 221.875,288.8906 Q221.6406,289.1563 221.2656,289.1563 Q220.9219,289.1563 220.7188,288.9531 Q220.5156,288.7656 220.4063,288.25 Q220.3594,287.8906 220.1719,287.7031 Q219.8438,287.3281 219.2344,287.1094 Q218.625,286.8906 218,286.8906 Q217.2344,286.8906 216.6016,287.2188 Q215.9688,287.5469 215.4766,288.2969 Q214.9844,289.0469 214.9844,290.0781 L214.9844,291.1719 Q214.9844,292.4063 215.875,293.2266 Q216.7656,294.0469 218.3594,294.0469 Q219.2969,294.0469 219.9531,293.7969 Q220.3438,293.6406 220.7656,293.2031 Q221.0313,292.9375 221.1797,292.8594 Q221.3281,292.7813 221.5313,292.7813 Q221.8594,292.7813 222.1172,293.0391 Q222.375,293.2969 222.375,293.6406 Q222.375,293.9844 222.0313,294.3906 Q221.5313,294.9688 220.7344,295.2969 Q219.6563,295.75 218.3594,295.75 Q216.8438,295.75 215.6406,295.125 Q214.6563,294.625 213.9688,293.5547 Q213.2813,292.4844 213.2813,291.2031 L213.2813,290.0469 Q213.2813,288.7188 213.8984,287.5703 Q214.5156,286.4219 215.6094,285.8047 Q216.7031,285.1875 217.9375,285.1875 Q218.6719,285.1875 219.3203,285.3516 Q219.9688,285.5156 220.5156,285.875 Z " fill="#000000"/><text fill="#000000" font-family="sans-serif" font-size="12" lengthAdjust="spacing" textLength="72" x="238.25" y="294.9102">WeatherData</text><line style="stroke:#A80036;stroke-width:1.5;" x1="124.5" x2="391.5" y1="306" y2="306"/><rect fill="none" height="6" style="stroke:#C82930;stroke-width:1.0;" width="6" x="131.5" y="314"/><text fill="#000000" font-family="sans-serif" font-size="11" lengthAdjust="spacing" textLength="96" x="143.5" y="321.4189">float m_temperature</text><rect fill="none" height="6" style="stroke:#C82930;stroke-width:1.0;" width="6" x="131.5" y="327.8359"/><text fill="#000000" font-family="sans-serif" font-size="11" lengthAdjust="spacing" textLength="77" x="143.5" y="335.2549">float m_humidity</text><rect fill="none" height="6" style="stroke:#C82930;stroke-width:1.0;" width="6" x="131.5" y="341.6719"/><text fill="#000000" font-family="sans-serif" font-size="11" lengthAdjust="spacing" textLength="82" x="143.5" y="349.0908">float m_pressure</text><rect fill="none" height="6" style="stroke:#C82930;stroke-width:1.0;" width="6" x="131.5" y="355.5078"/><text fill="#000000" font-family="sans-serif" font-size="11" lengthAdjust="spacing" textLength="160" x="143.5" y="362.9268">std::list&lt;Observer*&gt;m_observers</text><line style="stroke:#A80036;stroke-width:1.0;" x1="124.5" x2="391.5" y1="369.3438" y2="369.3438"/><ellipse cx="134.5" cy="380.3438" fill="#84BE84" rx="3" ry="3" style="stroke:#038048;stroke-width:1.0;"/><text fill="#000000" font-family="sans-serif" font-size="11" lengthAdjust="spacing" textLength="153" x="143.5" y="384.7627">void addObserver (Observer o)</text><ellipse cx="134.5" cy="394.1797" fill="#84BE84" rx="3" ry="3" style="stroke:#038048;stroke-width:1.0;"/><text fill="#000000" font-family="sans-serif" font-size="11" lengthAdjust="spacing" textLength="168" x="143.5" y="398.5986">void removeObserver(Observer o)</text><ellipse cx="134.5" cy="408.0156" fill="#84BE84" rx="3" ry="3" style="stroke:#038048;stroke-width:1.0;"/><text fill="#000000" font-family="sans-serif" font-size="11" lengthAdjust="spacing" textLength="110" x="143.5" y="412.4346">void notifyObservers()</text><line style="stroke:#A80036;stroke-width:1.0;stroke-dasharray:1.0,2.0;" x1="124.5" x2="391.5" y1="418.8516" y2="418.8516"/><ellipse cx="134.5" cy="429.8516" fill="#84BE84" rx="3" ry="3" style="stroke:#038048;stroke-width:1.0;"/><text fill="#000000" font-family="sans-serif" font-size="11" lengthAdjust="spacing" textLength="139" x="143.5" y="434.2705">void measurementChanged()</text><ellipse cx="134.5" cy="443.6875" fill="#84BE84" rx="3" ry="3" style="stroke:#038048;stroke-width:1.0;"/><text fill="#000000" font-family="sans-serif" font-size="11" lengthAdjust="spacing" textLength="243" x="143.5" y="448.1064">setWeatherData(float temp, float humid, float pres)</text><ellipse cx="134.5" cy="457.5234" fill="#84BE84" rx="3" ry="3" style="stroke:#038048;stroke-width:1.0;"/><text fill="#000000" font-family="sans-serif" font-size="11" lengthAdjust="spacing" textLength="108" x="143.5" y="461.9424">float getTemperature()</text><ellipse cx="134.5" cy="471.3594" fill="#84BE84" rx="3" ry="3" style="stroke:#038048;stroke-width:1.0;"/><text fill="#000000" font-family="sans-serif" font-size="11" lengthAdjust="spacing" textLength="87" x="143.5" y="475.7783">float getHumidity()</text><ellipse cx="134.5" cy="485.1953" fill="#84BE84" rx="3" ry="3" style="stroke:#038048;stroke-width:1.0;"/><text fill="#000000" font-family="sans-serif" font-size="11" lengthAdjust="spacing" textLength="91" x="143.5" y="489.6143">float getPressure()</text><line style="stroke:#A80036;stroke-width:1.0;stroke-dasharray:1.0,2.0;" x1="124.5" x2="391.5" y1="496.0313" y2="496.0313"/><!--MD5=[18075c0e13b7aebd3bfac330615db09f]
class CurrentDisplay--><rect codeLine="46" fill="#FEFECE" filter="url(#f1143aqx4drvb8)" height="103.3438" id="CurrentDisplay" style="stroke:#A80036;stroke-width:1.5;" width="238" x="461" y="337.5"/><ellipse cx="534.75" cy="353.5" fill="#ADD1B2" rx="11" ry="11" style="stroke:#A80036;stroke-width:1.0;"/><path d="M537.5156,349.375 Q537.6719,349.1563 537.8594,349.0469 Q538.0469,348.9375 538.2656,348.9375 Q538.6406,348.9375 538.875,349.1953 Q539.1094,349.4531 539.1094,350.0625 L539.1094,351.5156 Q539.1094,352.125 538.875,352.3906 Q538.6406,352.6563 538.2656,352.6563 Q537.9219,352.6563 537.7188,352.4531 Q537.5156,352.2656 537.4063,351.75 Q537.3594,351.3906 537.1719,351.2031 Q536.8438,350.8281 536.2344,350.6094 Q535.625,350.3906 535,350.3906 Q534.2344,350.3906 533.6016,350.7188 Q532.9688,351.0469 532.4766,351.7969 Q531.9844,352.5469 531.9844,353.5781 L531.9844,354.6719 Q531.9844,355.9063 532.875,356.7266 Q533.7656,357.5469 535.3594,357.5469 Q536.2969,357.5469 536.9531,357.2969 Q537.3438,357.1406 537.7656,356.7031 Q538.0313,356.4375 538.1797,356.3594 Q538.3281,356.2813 538.5313,356.2813 Q538.8594,356.2813 539.1172,356.5391 Q539.375,356.7969 539.375,357.1406 Q539.375,357.4844 539.0313,357.8906 Q538.5313,358.4688 537.7344,358.7969 Q536.6563,359.25 535.3594,359.25 Q533.8438,359.25 532.6406,358.625 Q531.6563,358.125 530.9688,357.0547 Q530.2813,355.9844 530.2813,354.7031 L530.2813,353.5469 Q530.2813,352.2188 530.8984,351.0703 Q531.5156,349.9219 532.6094,349.3047 Q533.7031,348.6875 534.9375,348.6875 Q535.6719,348.6875 536.3203,348.8516 Q536.9688,349.0156 537.5156,349.375 Z " fill="#000000"/><text fill="#000000" font-family="sans-serif" font-size="12" lengthAdjust="spacing" textLength="82" x="555.25" y="358.4102">CurrentDisplay</text><line style="stroke:#A80036;stroke-width:1.5;" x1="462" x2="698" y1="369.5" y2="369.5"/><rect fill="none" height="6" style="stroke:#C82930;stroke-width:1.0;" width="6" x="469" y="377.5"/><text fill="#000000" font-family="sans-serif" font-size="11" lengthAdjust="spacing" textLength="147" x="481" y="384.9189">WeatherData* m_weatherData</text><line style="stroke:#A80036;stroke-width:1.5;" x1="462" x2="698" y1="391.3359" y2="391.3359"/><ellipse cx="472" cy="402.3359" fill="#84BE84" rx="3" ry="3" style="stroke:#038048;stroke-width:1.0;"/><text fill="#000000" font-family="sans-serif" font-size="11" lengthAdjust="spacing" textLength="212" x="481" y="406.7549">CurrentDisplay(WeatherData* weatherData)</text><ellipse cx="472" cy="416.1719" fill="#84BE84" rx="3" ry="3" style="stroke:#038048;stroke-width:1.0;"/><text fill="#000000" font-family="sans-serif" font-size="11" lengthAdjust="spacing" textLength="64" x="481" y="420.5908">void update()</text><ellipse cx="472" cy="430.0078" fill="#84BE84" rx="3" ry="3" style="stroke:#038048;stroke-width:1.0;"/><text fill="#000000" font-family="sans-serif" font-size="11" lengthAdjust="spacing" textLength="65" x="481" y="434.4268">void display()</text><!--MD5=[0a5faaa013c9c31500bdda905c4c71c2]
class StatDisplay--><rect codeLine="53" fill="#FEFECE" filter="url(#f1143aqx4drvb8)" height="103.3438" id="StatDisplay" style="stroke:#A80036;stroke-width:1.5;" width="221" x="734.5" y="337.5"/><ellipse cx="809.75" cy="353.5" fill="#ADD1B2" rx="11" ry="11" style="stroke:#A80036;stroke-width:1.0;"/><path d="M812.5156,349.375 Q812.6719,349.1563 812.8594,349.0469 Q813.0469,348.9375 813.2656,348.9375 Q813.6406,348.9375 813.875,349.1953 Q814.1094,349.4531 814.1094,350.0625 L814.1094,351.5156 Q814.1094,352.125 813.875,352.3906 Q813.6406,352.6563 813.2656,352.6563 Q812.9219,352.6563 812.7188,352.4531 Q812.5156,352.2656 812.4063,351.75 Q812.3594,351.3906 812.1719,351.2031 Q811.8438,350.8281 811.2344,350.6094 Q810.625,350.3906 810,350.3906 Q809.2344,350.3906 808.6016,350.7188 Q807.9688,351.0469 807.4766,351.7969 Q806.9844,352.5469 806.9844,353.5781 L806.9844,354.6719 Q806.9844,355.9063 807.875,356.7266 Q808.7656,357.5469 810.3594,357.5469 Q811.2969,357.5469 811.9531,357.2969 Q812.3438,357.1406 812.7656,356.7031 Q813.0313,356.4375 813.1797,356.3594 Q813.3281,356.2813 813.5313,356.2813 Q813.8594,356.2813 814.1172,356.5391 Q814.375,356.7969 814.375,357.1406 Q814.375,357.4844 814.0313,357.8906 Q813.5313,358.4688 812.7344,358.7969 Q811.6563,359.25 810.3594,359.25 Q808.8438,359.25 807.6406,358.625 Q806.6563,358.125 805.9688,357.0547 Q805.2813,355.9844 805.2813,354.7031 L805.2813,353.5469 Q805.2813,352.2188 805.8984,351.0703 Q806.5156,349.9219 807.6094,349.3047 Q808.7031,348.6875 809.9375,348.6875 Q810.6719,348.6875 811.3203,348.8516 Q811.9688,349.0156 812.5156,349.375 Z " fill="#000000"/><text fill="#000000" font-family="sans-serif" font-size="12" lengthAdjust="spacing" textLength="62" x="830.25" y="358.4102">StatDisplay</text><line style="stroke:#A80036;stroke-width:1.5;" x1="735.5" x2="954.5" y1="369.5" y2="369.5"/><rect fill="none" height="6" style="stroke:#C82930;stroke-width:1.0;" width="6" x="742.5" y="377.5"/><text fill="#000000" font-family="sans-serif" font-size="11" lengthAdjust="spacing" textLength="147" x="754.5" y="384.9189">WeatherData* m_weatherData</text><line style="stroke:#A80036;stroke-width:1.5;" x1="735.5" x2="954.5" y1="391.3359" y2="391.3359"/><ellipse cx="745.5" cy="402.3359" fill="#84BE84" rx="3" ry="3" style="stroke:#038048;stroke-width:1.0;"/><text fill="#000000" font-family="sans-serif" font-size="11" lengthAdjust="spacing" textLength="195" x="754.5" y="406.7549">StatDisplay(WeatherData* weatherData)</text><ellipse cx="745.5" cy="416.1719" fill="#84BE84" rx="3" ry="3" style="stroke:#038048;stroke-width:1.0;"/><text fill="#000000" font-family="sans-serif" font-size="11" lengthAdjust="spacing" textLength="64" x="754.5" y="420.5908">void update()</text><ellipse cx="745.5" cy="430.0078" fill="#84BE84" rx="3" ry="3" style="stroke:#038048;stroke-width:1.0;"/><text fill="#000000" font-family="sans-serif" font-size="11" lengthAdjust="spacing" textLength="65" x="754.5" y="434.4268">void display()</text><!--MD5=[297a0fef87b4e1353b7422f9b4d8cc2e]
class DisplayElement--><rect codeLine="73" fill="#FEFECE" filter="url(#f1143aqx4drvb8)" height="61.8359" id="DisplayElement" style="stroke:#A80036;stroke-width:1.5;" width="141" x="729.5" y="76"/><ellipse cx="754.4" cy="92" fill="#B4A7E5" rx="11" ry="11" style="stroke:#A80036;stroke-width:1.0;"/><path d="M755.3531,88.6406 L755.3531,95.2969 L757.0719,95.2969 Q757.6813,95.2969 757.9469,95.5313 Q758.2125,95.7656 758.2125,96.1563 Q758.2125,96.5313 757.9469,96.7656 Q757.6813,97 757.0719,97 L751.9313,97 Q751.3219,97 751.0563,96.7656 Q750.7906,96.5313 750.7906,96.1406 Q750.7906,95.7656 751.0563,95.5313 Q751.3219,95.2969 751.9313,95.2969 L753.65,95.2969 L753.65,88.6406 L751.9313,88.6406 Q751.3219,88.6406 751.0563,88.4063 Q750.7906,88.1719 750.7906,87.7813 Q750.7906,87.4063 751.0563,87.1719 Q751.3219,86.9375 751.9313,86.9375 L757.0719,86.9375 Q757.6813,86.9375 757.9469,87.1719 Q758.2125,87.4063 758.2125,87.7813 Q758.2125,88.1719 757.9469,88.4063 Q757.6813,88.6406 757.0719,88.6406 L755.3531,88.6406 Z " fill="#000000"/><text fill="#000000" font-family="sans-serif" font-size="12" font-style="italic" lengthAdjust="spacing" textLength="87" x="770.6" y="96.9102">DisplayElement</text><line style="stroke:#A80036;stroke-width:1.5;" x1="730.5" x2="869.5" y1="108" y2="108"/><line style="stroke:#A80036;stroke-width:1.5;" x1="730.5" x2="869.5" y1="116" y2="116"/><ellipse cx="740.5" cy="127" fill="#84BE84" rx="3" ry="3" style="stroke:#038048;stroke-width:1.0;"/><text fill="#000000" font-family="sans-serif" font-size="11" lengthAdjust="spacing" textLength="115" x="749.5" y="131.4189">virtual void display() = 0</text><!--MD5=[e17aec03fa89ce09854c00a062f7bcb1]
link Observalble$$$LEFT to Observalble--><!--MD5=[19fb5ac0656c79503d3ff577c85bc97d]
reverse link Observalble to WeatherData--><path d="M331.51,171.34 C321.23,201.64 308.6,238.86 296.73,273.84 " fill="none" id="Observalble-backto-WeatherData" style="stroke:#A80036;stroke-width:1.0;stroke-dasharray:7.0,7.0;"/><polygon fill="none" points="325,168.75,338.05,152.06,338.25,173.25,325,168.75" style="stroke:#A80036;stroke-width:1.0;"/><!--MD5=[3440b2a810d42ff4614b11700f0d9778]
reverse link Observer to CurrentDisplay--><path d="M580,158.45 C580,209.09 580,286.67 580,337.37 " fill="none" id="Observer-backto-CurrentDisplay" style="stroke:#A80036;stroke-width:1.0;stroke-dasharray:7.0,7.0;"/><polygon fill="none" points="573,158.23,580,138.23,587,158.23,573,158.23" style="stroke:#A80036;stroke-width:1.0;"/><!--MD5=[9cbb3179d2a0daab2d013e46b5d1d5cb]
reverse link Observer to StatDisplay--><path d="M644.17,149.57 C668.34,166.77 695.23,187.86 717,210 C755.17,248.81 790.63,299.8 814.51,337.26 " fill="none" id="Observer-backto-StatDisplay" style="stroke:#A80036;stroke-width:1.0;stroke-dasharray:7.0,7.0;"/><polygon fill="none" points="640.01,155.2,627.57,138.05,647.99,143.7,640.01,155.2" style="stroke:#A80036;stroke-width:1.0;"/><!--MD5=[e27f4fdeb15dc2b440642eff8d8c808e]
link Observalble to Observer--><path codeLine="79" d="M475.37,140.54 C485.11,140.09 494.86,138.89 504.6,136.95 " fill="none" id="Observalble-to-Observer" style="stroke:#A80036;stroke-width:1.0;"/><polygon fill="#A80036" points="509.7,135.86,500.0633,133.8269,504.8102,136.9037,501.7333,141.6506,509.7,135.86" style="stroke:#A80036;stroke-width:1.0;"/><text fill="#000000" font-family="sans-serif" font-size="13" lengthAdjust="spacing" textLength="20" x="482.0464" y="135.3679">0..*</text><!--MD5=[e27f4fdeb15dc2b440642eff8d8c808e]
link Observalble to Observer--><!--MD5=[005957867990d6d85e4acd49c7f3411a]
link CurrentDisplay to WeatherData--><path codeLine="80" d="M460.96,389 C440.38,389 418.82,389 397.75,389 " fill="none" id="CurrentDisplay-to-WeatherData" style="stroke:#A80036;stroke-width:1.0;"/><polygon fill="#A80036" points="392.69,389,401.69,393,397.69,389,401.69,385,392.69,389" style="stroke:#A80036;stroke-width:1.0;"/><text fill="#000000" font-family="sans-serif" font-size="13" lengthAdjust="spacing" textLength="32" x="410.75" y="382.4951">use a</text><!--MD5=[90d7bb2c89f029fd8597f6501ff3af9b]
link WeatherData to CurrentDisplay--><!--MD5=[79928ce0e192e747d651fadb8748356e]
link StatDisplay to WeatherData--><path codeLine="81" d="M821.26,337.18 C800.09,297.84 765.01,246.6 717,223 C608.52,169.66 558.01,180.08 445,223 C416.61,233.78 389.77,251.07 365.76,270.5 " fill="none" id="StatDisplay-to-WeatherData" style="stroke:#A80036;stroke-width:1.0;"/><polygon fill="#A80036" points="361.62,273.89,371.1123,271.2638,365.4821,270.7145,366.0314,265.0843,361.62,273.89" style="stroke:#A80036;stroke-width:1.0;"/><text fill="#000000" font-family="sans-serif" font-size="13" lengthAdjust="spacing" textLength="32" x="476" y="198.4951">use a</text><!--MD5=[097f5c46ffd81586910632614bfd30ae]
reverse link DisplayElement to CurrentDisplay--><path codeLine="85" d="M762.38,153.69 C748.07,171.22 731.68,191.45 717,210 C683.24,252.66 645.59,301.68 618.32,337.46 " fill="none" id="DisplayElement-backto-CurrentDisplay" style="stroke:#A80036;stroke-width:1.0;stroke-dasharray:7.0,7.0;"/><polygon fill="none" points="757,149.21,775.09,138.18,767.83,158.08,757,149.21" style="stroke:#A80036;stroke-width:1.0;"/><!--MD5=[9a905cc3f136aae36cd70b3a8603fdff]
reverse link DisplayElement to StatDisplay--><path codeLine="86" d="M808.05,158.11 C816.19,208.74 828.7,286.55 836.86,337.37 " fill="none" id="DisplayElement-backto-StatDisplay" style="stroke:#A80036;stroke-width:1.0;stroke-dasharray:7.0,7.0;"/><polygon fill="none" points="801.12,159.09,804.86,138.23,814.94,156.87,801.12,159.09" style="stroke:#A80036;stroke-width:1.0;"/><!--MD5=[e8761cef1c043b3365422dea2d9b00a5]
link CurrentDisplay to StatDisplay--><!--MD5=[6e6135b2ec67b0d744eb22356fcff734]
@startuml Observer Pattern
package "Observalble and Observer Interface" {
    Interface Observalble{
        + virtual void addObserver(Observer o) = 0
        + virtual void removeObserver(Observer o) = 0
        + virtual void notifyObservers() = 0
    }
    note left of Observalble::notifyObservers
    for observer in observers,
        call observer.update()
    end note

    Interface Observer{
        + virutal void update() = 0
    }
}



package "Concreat Observalble"{
class WeatherData implements  Observalble{
    ' store the weather data from weather station
    - float m_temperature
    - float m_humidity
    - float m_pressure
    ' store all the observers' pointer in list for nothify when weather data changed
    - std::list<Observer*>m_observers 
    - -
    + void addObserver (Observer o)
    + void removeObserver(Observer o) 
    + void notifyObservers()
    ..
    ' when weather data changed, this method will be invoked
    + void measurementChanged()
    ' simulate weaher data changed
    + setWeatherData(float temp, float humid, float pres)
    ' get method for Observer use
    + float getTemperature()
    + float getHumidity()
    + float getPressure()
    ' new get method can be add for future requirement
    ..
}
}

package "Concreat Observer"{
    class CurrentDisplay implements Observer{
        - WeatherData* m_weatherData
        + CurrentDisplay(WeatherData* weatherData)
        + void update()
        + void display()
    }

    class StatDisplay implements Observer{
        - WeatherData* m_weatherData
        + StatDisplay(WeatherData* weatherData)
        + void update()
        + void display()
    }
}
' class ForecastDisplay implements Observer, DisplayElement{
'     - WeatherData* m_weatherData
'     + ForecastDisplay(WeatherData* weatherData)
'     + void update()
'     + void display()
' }
' class ThirdPartyDisplay implements Observer, DisplayElement{
'     - WeatherData* m_weatherData
'     + ThirdPartyDisplay(WeatherData* weatherData)
'     + void update()
'     + void display()
' }

Interface DisplayElement{
    + virtual void display() = 0
    
}


Observalble - ->"0..*" Observer
CurrentDisplay - -> WeatherData: use a 
StatDisplay - -> WeatherData: use a
'ForecastDisplay - -> WeatherData
'ThirdPartyDisplay - -> WeatherData

DisplayElement <|.. CurrentDisplay
DisplayElement <|.. StatDisplay

'Layout modify
Observalble -[hidden]> Observer 

WeatherData -[hidden]> CurrentDisplay
CurrentDisplay -[hidden]> StatDisplay 


@enduml

@startuml Observer Pattern
package "Observalble and Observer Interface" {
    Interface Observalble{
        + virtual void addObserver(Observer o) = 0
        + virtual void removeObserver(Observer o) = 0
        + virtual void notifyObservers() = 0
    }
    note left of Observalble::notifyObservers
    for observer in observers,
        call observer.update()
    end note

    Interface Observer{
        + virutal void update() = 0
    }
}



package "Concreat Observalble"{
class WeatherData implements  Observalble{
    - float m_temperature
    - float m_humidity
    - float m_pressure
    - std::list<Observer*>m_observers 
    - -
    + void addObserver (Observer o)
    + void removeObserver(Observer o) 
    + void notifyObservers()
    ..
    + void measurementChanged()
    + setWeatherData(float temp, float humid, float pres)
    + float getTemperature()
    + float getHumidity()
    + float getPressure()
    ..
}
}

package "Concreat Observer"{
    class CurrentDisplay implements Observer{
        - WeatherData* m_weatherData
        + CurrentDisplay(WeatherData* weatherData)
        + void update()
        + void display()
    }

    class StatDisplay implements Observer{
        - WeatherData* m_weatherData
        + StatDisplay(WeatherData* weatherData)
        + void update()
        + void display()
    }
}

Interface DisplayElement{
    + virtual void display() = 0
    
}


Observalble - ->"0..*" Observer
CurrentDisplay - -> WeatherData: use a 
StatDisplay - -> WeatherData: use a

DisplayElement <|.. CurrentDisplay
DisplayElement <|.. StatDisplay

Observalble -[hidden]> Observer 

WeatherData -[hidden]> CurrentDisplay
CurrentDisplay -[hidden]> StatDisplay 


@enduml

PlantUML version 1.2021.12(Wed Oct 06 00:01:58 CST 2021)
(GPL source distribution)
Java Runtime: Java(TM) SE Runtime Environment
JVM: Java HotSpot(TM) Client VM
Default Encoding: Cp1252
Language: en
Country: US
--></g></svg>