<?xml version="1.0" encoding="UTF-8" standalone="no"?><svg xmlns="http://www.w3.org/2000/svg" xmlns:xlink="http://www.w3.org/1999/xlink" contentScriptType="application/ecmascript" contentStyleType="text/css" height="218px" preserveAspectRatio="none" style="width:395px;height:218px;background:#FFFFFF;" version="1.1" viewBox="0 0 395 218" width="395px" zoomAndPan="magnify"><defs><filter height="300%" id="f1oi0ihnz713m1" width="300%" x="-1" y="-1"><feGaussianBlur result="blurOut" stdDeviation="2.0"/><feColorMatrix in="blurOut" result="blurOut2" type="matrix" values="0 0 0 0 0 0 0 0 0 0 0 0 0 0 0 0 0 0 .4 0"/><feOffset dx="4.0" dy="4.0" in="blurOut2" result="blurOut3"/><feBlend in="SourceGraphic" in2="blurOut3" mode="normal"/></filter></defs><g><!--MD5=[e3f72718913f1e037c5bc72e44de49f6]
class client--><rect codeLine="2" fill="#FEFECE" filter="url(#f1oi0ihnz713m1)" height="48" id="client" style="stroke:#A80036;stroke-width:1.5;" width="61" x="7" y="14"/><ellipse cx="22" cy="30" fill="#ADD1B2" rx="11" ry="11" style="stroke:#A80036;stroke-width:1.0;"/><path d="M24.7656,25.875 Q24.9219,25.6563 25.1094,25.5469 Q25.2969,25.4375 25.5156,25.4375 Q25.8906,25.4375 26.125,25.6953 Q26.3594,25.9531 26.3594,26.5625 L26.3594,28.0156 Q26.3594,28.625 26.125,28.8906 Q25.8906,29.1563 25.5156,29.1563 Q25.1719,29.1563 24.9688,28.9531 Q24.7656,28.7656 24.6563,28.25 Q24.6094,27.8906 24.4219,27.7031 Q24.0938,27.3281 23.4844,27.1094 Q22.875,26.8906 22.25,26.8906 Q21.4844,26.8906 20.8516,27.2188 Q20.2188,27.5469 19.7266,28.2969 Q19.2344,29.0469 19.2344,30.0781 L19.2344,31.1719 Q19.2344,32.4063 20.125,33.2266 Q21.0156,34.0469 22.6094,34.0469 Q23.5469,34.0469 24.2031,33.7969 Q24.5938,33.6406 25.0156,33.2031 Q25.2813,32.9375 25.4297,32.8594 Q25.5781,32.7813 25.7813,32.7813 Q26.1094,32.7813 26.3672,33.0391 Q26.625,33.2969 26.625,33.6406 Q26.625,33.9844 26.2813,34.3906 Q25.7813,34.9688 24.9844,35.2969 Q23.9063,35.75 22.6094,35.75 Q21.0938,35.75 19.8906,35.125 Q18.9063,34.625 18.2188,33.5547 Q17.5313,32.4844 17.5313,31.2031 L17.5313,30.0469 Q17.5313,28.7188 18.1484,27.5703 Q18.7656,26.4219 19.8594,25.8047 Q20.9531,25.1875 22.1875,25.1875 Q22.9219,25.1875 23.5703,25.3516 Q24.2188,25.5156 24.7656,25.875 Z " fill="#000000"/><text fill="#000000" font-family="sans-serif" font-size="12" lengthAdjust="spacing" textLength="29" x="36" y="34.9102">client</text><line style="stroke:#A80036;stroke-width:1.5;" x1="8" x2="67" y1="46" y2="46"/><line style="stroke:#A80036;stroke-width:1.5;" x1="8" x2="67" y1="54" y2="54"/><!--MD5=[fc07866a383d07d405a25512054a0e5c]
class Target--><rect codeLine="5" fill="#FEFECE" filter="url(#f1oi0ihnz713m1)" height="61.8359" id="Target" style="stroke:#A80036;stroke-width:1.5;" width="94" x="103.5" y="7"/><ellipse cx="130.65" cy="23" fill="#B4A7E5" rx="11" ry="11" style="stroke:#A80036;stroke-width:1.0;"/><path d="M131.6031,19.6406 L131.6031,26.2969 L133.3219,26.2969 Q133.9313,26.2969 134.1969,26.5313 Q134.4625,26.7656 134.4625,27.1563 Q134.4625,27.5313 134.1969,27.7656 Q133.9313,28 133.3219,28 L128.1813,28 Q127.5719,28 127.3063,27.7656 Q127.0406,27.5313 127.0406,27.1406 Q127.0406,26.7656 127.3063,26.5313 Q127.5719,26.2969 128.1813,26.2969 L129.9,26.2969 L129.9,19.6406 L128.1813,19.6406 Q127.5719,19.6406 127.3063,19.4063 Q127.0406,19.1719 127.0406,18.7813 Q127.0406,18.4063 127.3063,18.1719 Q127.5719,17.9375 128.1813,17.9375 L133.3219,17.9375 Q133.9313,17.9375 134.1969,18.1719 Q134.4625,18.4063 134.4625,18.7813 Q134.4625,19.1719 134.1969,19.4063 Q133.9313,19.6406 133.3219,19.6406 L131.6031,19.6406 Z " fill="#000000"/><text fill="#000000" font-family="sans-serif" font-size="12" font-style="italic" lengthAdjust="spacing" textLength="35" x="147.35" y="27.9102">Target</text><line style="stroke:#A80036;stroke-width:1.5;" x1="104.5" x2="196.5" y1="39" y2="39"/><line style="stroke:#A80036;stroke-width:1.5;" x1="104.5" x2="196.5" y1="47" y2="47"/><ellipse cx="114.5" cy="58" fill="#84BE84" rx="3" ry="3" style="stroke:#038048;stroke-width:1.0;"/><text fill="#000000" font-family="sans-serif" font-size="11" lengthAdjust="spacing" textLength="68" x="123.5" y="62.4189">void request()</text><!--MD5=[f38a85e47f7d4f812523dd9b6d7d2c16]
class Adapter--><rect codeLine="11" fill="#FEFECE" filter="url(#f1oi0ihnz713m1)" height="75.6719" id="Adapter" style="stroke:#A80036;stroke-width:1.5;" width="121" x="90" y="129"/><ellipse cx="126.15" cy="145" fill="#ADD1B2" rx="11" ry="11" style="stroke:#A80036;stroke-width:1.0;"/><path d="M128.9156,140.875 Q129.0719,140.6563 129.2594,140.5469 Q129.4469,140.4375 129.6656,140.4375 Q130.0406,140.4375 130.275,140.6953 Q130.5094,140.9531 130.5094,141.5625 L130.5094,143.0156 Q130.5094,143.625 130.275,143.8906 Q130.0406,144.1563 129.6656,144.1563 Q129.3219,144.1563 129.1188,143.9531 Q128.9156,143.7656 128.8063,143.25 Q128.7594,142.8906 128.5719,142.7031 Q128.2438,142.3281 127.6344,142.1094 Q127.025,141.8906 126.4,141.8906 Q125.6344,141.8906 125.0016,142.2188 Q124.3688,142.5469 123.8766,143.2969 Q123.3844,144.0469 123.3844,145.0781 L123.3844,146.1719 Q123.3844,147.4063 124.275,148.2266 Q125.1656,149.0469 126.7594,149.0469 Q127.6969,149.0469 128.3531,148.7969 Q128.7438,148.6406 129.1656,148.2031 Q129.4313,147.9375 129.5797,147.8594 Q129.7281,147.7813 129.9313,147.7813 Q130.2594,147.7813 130.5172,148.0391 Q130.775,148.2969 130.775,148.6406 Q130.775,148.9844 130.4313,149.3906 Q129.9313,149.9688 129.1344,150.2969 Q128.0563,150.75 126.7594,150.75 Q125.2438,150.75 124.0406,150.125 Q123.0563,149.625 122.3688,148.5547 Q121.6813,147.4844 121.6813,146.2031 L121.6813,145.0469 Q121.6813,143.7188 122.2984,142.5703 Q122.9156,141.4219 124.0094,140.8047 Q125.1031,140.1875 126.3375,140.1875 Q127.0719,140.1875 127.7203,140.3516 Q128.3688,140.5156 128.9156,140.875 Z " fill="#000000"/><text fill="#000000" font-family="sans-serif" font-size="12" lengthAdjust="spacing" textLength="42" x="144.85" y="149.9102">Adapter</text><line style="stroke:#A80036;stroke-width:1.5;" x1="91" x2="210" y1="161" y2="161"/><rect fill="none" height="6" style="stroke:#C82930;stroke-width:1.0;" width="6" x="98" y="169"/><text fill="#000000" font-family="sans-serif" font-size="11" lengthAdjust="spacing" textLength="95" x="110" y="176.4189">Adaptee* m_adptee</text><line style="stroke:#A80036;stroke-width:1.5;" x1="91" x2="210" y1="182.8359" y2="182.8359"/><ellipse cx="101" cy="193.8359" fill="#84BE84" rx="3" ry="3" style="stroke:#038048;stroke-width:1.0;"/><text fill="#000000" font-family="sans-serif" font-size="11" lengthAdjust="spacing" textLength="68" x="110" y="198.2549">void request()</text><!--MD5=[7393b79429f23cd61e6e6a493d3a2b14]
class Adaptee--><rect codeLine="16" fill="#FEFECE" filter="url(#f1oi0ihnz713m1)" height="61.8359" id="Adaptee" style="stroke:#A80036;stroke-width:1.5;" width="135" x="246" y="136"/><ellipse cx="287.1" cy="152" fill="#ADD1B2" rx="11" ry="11" style="stroke:#A80036;stroke-width:1.0;"/><path d="M289.8656,147.875 Q290.0219,147.6563 290.2094,147.5469 Q290.3969,147.4375 290.6156,147.4375 Q290.9906,147.4375 291.225,147.6953 Q291.4594,147.9531 291.4594,148.5625 L291.4594,150.0156 Q291.4594,150.625 291.225,150.8906 Q290.9906,151.1563 290.6156,151.1563 Q290.2719,151.1563 290.0688,150.9531 Q289.8656,150.7656 289.7563,150.25 Q289.7094,149.8906 289.5219,149.7031 Q289.1938,149.3281 288.5844,149.1094 Q287.975,148.8906 287.35,148.8906 Q286.5844,148.8906 285.9516,149.2188 Q285.3188,149.5469 284.8266,150.2969 Q284.3344,151.0469 284.3344,152.0781 L284.3344,153.1719 Q284.3344,154.4063 285.225,155.2266 Q286.1156,156.0469 287.7094,156.0469 Q288.6469,156.0469 289.3031,155.7969 Q289.6938,155.6406 290.1156,155.2031 Q290.3813,154.9375 290.5297,154.8594 Q290.6781,154.7813 290.8813,154.7813 Q291.2094,154.7813 291.4672,155.0391 Q291.725,155.2969 291.725,155.6406 Q291.725,155.9844 291.3813,156.3906 Q290.8813,156.9688 290.0844,157.2969 Q289.0063,157.75 287.7094,157.75 Q286.1938,157.75 284.9906,157.125 Q284.0063,156.625 283.3188,155.5547 Q282.6313,154.4844 282.6313,153.2031 L282.6313,152.0469 Q282.6313,150.7188 283.2484,149.5703 Q283.8656,148.4219 284.9594,147.8047 Q286.0531,147.1875 287.2875,147.1875 Q288.0219,147.1875 288.6703,147.3516 Q289.3188,147.5156 289.8656,147.875 Z " fill="#000000"/><text fill="#000000" font-family="sans-serif" font-size="12" lengthAdjust="spacing" textLength="45" x="306.9" y="156.9102">Adaptee</text><line style="stroke:#A80036;stroke-width:1.5;" x1="247" x2="380" y1="168" y2="168"/><line style="stroke:#A80036;stroke-width:1.5;" x1="247" x2="380" y1="176" y2="176"/><ellipse cx="257" cy="187" fill="#84BE84" rx="3" ry="3" style="stroke:#038048;stroke-width:1.0;"/><text fill="#000000" font-family="sans-serif" font-size="11" lengthAdjust="spacing" textLength="109" x="266" y="191.4189">void specificRequest()</text><!--MD5=[fdd6427ebd143ba1abcd065d464750ba]
link client to Target--><path codeLine="9" d="M68.4,38 C78.32,38 88.24,38 98.17,38 " fill="none" id="client-to-Target" style="stroke:#A80036;stroke-width:1.0;"/><polygon fill="#A80036" points="103.36,38,94.36,34,98.36,38,94.36,42,103.36,38" style="stroke:#A80036;stroke-width:1.0;"/><!--MD5=[e8afce381d6978114aa9e217ec9a4ba2]
reverse link Target to Adapter--><path d="M150.5,89.43 C150.5,102.59 150.5,116.53 150.5,128.86 " fill="none" id="Target-backto-Adapter" style="stroke:#A80036;stroke-width:1.0;stroke-dasharray:7.0,7.0;"/><polygon fill="none" points="143.5,89.1,150.5,69.1,157.5,89.1,143.5,89.1" style="stroke:#A80036;stroke-width:1.0;"/><!--MD5=[ac16be24c016d0cc1b5b2bfc6dfbddbe]
link Adapter to Adaptee--><path codeLine="19" d="M211.31,167 C221.05,167 230.8,167 240.54,167 " fill="none" id="Adapter-to-Adaptee" style="stroke:#A80036;stroke-width:1.0;"/><polygon fill="#A80036" points="245.64,167,236.64,163,240.64,167,236.64,171,245.64,167" style="stroke:#A80036;stroke-width:1.0;"/><!--MD5=[1901989da956d0b0dc6508be80bd920d]
@startuml Adapter Pattern

class client{

}
interface Target{
    + void request()
}

client -> Target

class Adapter implements Target{
    - Adaptee* m_adptee
    + void request()
}

class Adaptee{
    + void specificRequest()
}
Adapter -> Adaptee
@enduml

PlantUML version 1.2021.12(Wed Oct 06 00:01:58 CST 2021)
(GPL source distribution)
Java Runtime: Java(TM) SE Runtime Environment
JVM: Java HotSpot(TM) Client VM
Default Encoding: Cp1252
Language: en
Country: US
--></g></svg>