<?xml version="1.0" encoding="UTF-8" standalone="no"?><svg xmlns="http://www.w3.org/2000/svg" xmlns:xlink="http://www.w3.org/1999/xlink" contentScriptType="application/ecmascript" contentStyleType="text/css" height="333px" preserveAspectRatio="none" style="width:1223px;height:333px;background:#FFFFFF;" version="1.1" viewBox="0 0 1223 333" width="1223px" zoomAndPan="magnify"><defs><filter height="300%" id="f11vcu0bzgiw78" width="300%" x="-1" y="-1"><feGaussianBlur result="blurOut" stdDeviation="2.0"/><feColorMatrix in="blurOut" result="blurOut2" type="matrix" values="0 0 0 0 0 0 0 0 0 0 0 0 0 0 0 0 0 0 .4 0"/><feOffset dx="4.0" dy="4.0" in="blurOut2" result="blurOut3"/><feBlend in="SourceGraphic" in2="blurOut3" mode="normal"/></filter></defs><g><!--MD5=[0b1ca9ff8dd286056f123a9e6a19f3e9]
cluster factory.factory--><polygon fill="#FFFFFF" filter="url(#f11vcu0bzgiw78)" points="16,6,122,6,129,29.6094,1206,29.6094,1206,326,16,326,16,6" style="stroke:#000000;stroke-width:1.5;"/><line style="stroke:#000000;stroke-width:1.5;" x1="16" x2="129" y1="29.6094" y2="29.6094"/><text fill="#000000" font-family="sans-serif" font-size="14" font-weight="bold" lengthAdjust="spacing" textLength="100" x="20" y="22.5332">factory.factory</text><!--MD5=[56912975b477155f850bed95a14bd30b]
class factory.factory.PizzaStore--><rect codeLine="3" fill="#FEFECE" filter="url(#f11vcu0bzgiw78)" height="75.6719" id="factory.factory.PizzaStore" style="stroke:#A80036;stroke-width:1.5;" width="225" x="251.5" y="76.5"/><ellipse cx="329.25" cy="92.5" fill="#A9DCDF" rx="11" ry="11" style="stroke:#A80036;stroke-width:1.0;"/><path d="M331.4375,94.2656 L327.2969,94.2656 L326.875,95.2969 L327.2969,95.2969 Q327.9063,95.2969 328.1719,95.5313 Q328.4375,95.7656 328.4375,96.1563 Q328.4375,96.5313 328.1719,96.7656 Q327.9063,97 327.2969,97 L325,97 Q324.3906,97 324.1328,96.7656 Q323.875,96.5313 323.875,96.1406 Q323.875,95.7656 324.1484,95.5234 Q324.4219,95.2813 325.0469,95.2969 L327.7188,88.6406 L326.6094,88.6406 Q326,88.6406 325.7344,88.4063 Q325.4688,88.1719 325.4688,87.7813 Q325.4688,87.4063 325.7344,87.1719 Q326,86.9375 326.6094,86.9375 L330.2813,86.9375 L333.6719,95.2969 Q334.2656,95.2969 334.4531,95.4375 Q334.8438,95.7031 334.8438,96.1563 Q334.8438,96.5313 334.5859,96.7656 Q334.3281,97 333.7188,97 L331.4219,97 Q330.8125,97 330.5469,96.7656 Q330.2813,96.5313 330.2813,96.1406 Q330.2813,95.7656 330.5469,95.5313 Q330.8125,95.2969 331.4219,95.2969 L331.8438,95.2969 L331.4375,94.2656 Z M330.7188,92.5625 L329.3594,89.1875 L327.9844,92.5625 L330.7188,92.5625 Z " fill="#000000"/><text fill="#000000" font-family="sans-serif" font-size="12" font-style="italic" lengthAdjust="spacing" textLength="61" x="349.75" y="97.4102">PizzaStore</text><line style="stroke:#A80036;stroke-width:1.5;" x1="252.5" x2="475.5" y1="108.5" y2="108.5"/><line style="stroke:#A80036;stroke-width:1.5;" x1="252.5" x2="475.5" y1="116.5" y2="116.5"/><polygon fill="#FFFF44" points="262.5,122.5,266.5,126.5,262.5,130.5,258.5,126.5" style="stroke:#B38D22;stroke-width:1.0;"/><text fill="#000000" font-family="sans-serif" font-size="11" lengthAdjust="spacing" textLength="199" x="271.5" y="131.9189">virtual Pizza* createPizza(string type) = 0</text><ellipse cx="262.5" cy="141.3359" fill="#84BE84" rx="3" ry="3" style="stroke:#038048;stroke-width:1.0;"/><text fill="#000000" font-family="sans-serif" font-size="11" lengthAdjust="spacing" textLength="144" x="271.5" y="145.7549">Pizza* orderPizza(string type)</text><!--MD5=[0a1af0989f931e47800dde69b8f84c83]
class factory.factory.NYPizzaStore--><rect codeLine="13" fill="#FEFECE" filter="url(#f11vcu0bzgiw78)" height="61.8359" id="factory.factory.NYPizzaStore" style="stroke:#A80036;stroke-width:1.5;" width="175" x="32.5" y="248"/><ellipse cx="79.25" cy="264" fill="#ADD1B2" rx="11" ry="11" style="stroke:#A80036;stroke-width:1.0;"/><path d="M82.0156,259.875 Q82.1719,259.6563 82.3594,259.5469 Q82.5469,259.4375 82.7656,259.4375 Q83.1406,259.4375 83.375,259.6953 Q83.6094,259.9531 83.6094,260.5625 L83.6094,262.0156 Q83.6094,262.625 83.375,262.8906 Q83.1406,263.1563 82.7656,263.1563 Q82.4219,263.1563 82.2188,262.9531 Q82.0156,262.7656 81.9063,262.25 Q81.8594,261.8906 81.6719,261.7031 Q81.3438,261.3281 80.7344,261.1094 Q80.125,260.8906 79.5,260.8906 Q78.7344,260.8906 78.1016,261.2188 Q77.4688,261.5469 76.9766,262.2969 Q76.4844,263.0469 76.4844,264.0781 L76.4844,265.1719 Q76.4844,266.4063 77.375,267.2266 Q78.2656,268.0469 79.8594,268.0469 Q80.7969,268.0469 81.4531,267.7969 Q81.8438,267.6406 82.2656,267.2031 Q82.5313,266.9375 82.6797,266.8594 Q82.8281,266.7813 83.0313,266.7813 Q83.3594,266.7813 83.6172,267.0391 Q83.875,267.2969 83.875,267.6406 Q83.875,267.9844 83.5313,268.3906 Q83.0313,268.9688 82.2344,269.2969 Q81.1563,269.75 79.8594,269.75 Q78.3438,269.75 77.1406,269.125 Q76.1563,268.625 75.4688,267.5547 Q74.7813,266.4844 74.7813,265.2031 L74.7813,264.0469 Q74.7813,262.7188 75.3984,261.5703 Q76.0156,260.4219 77.1094,259.8047 Q78.2031,259.1875 79.4375,259.1875 Q80.1719,259.1875 80.8203,259.3516 Q81.4688,259.5156 82.0156,259.875 Z " fill="#000000"/><text fill="#000000" font-family="sans-serif" font-size="12" lengthAdjust="spacing" textLength="73" x="99.75" y="268.9102">NYPizzaStore</text><line style="stroke:#A80036;stroke-width:1.5;" x1="33.5" x2="206.5" y1="280" y2="280"/><line style="stroke:#A80036;stroke-width:1.5;" x1="33.5" x2="206.5" y1="288" y2="288"/><ellipse cx="43.5" cy="299" fill="#84BE84" rx="3" ry="3" style="stroke:#038048;stroke-width:1.0;"/><text fill="#000000" font-family="sans-serif" font-size="11" lengthAdjust="spacing" textLength="149" x="52.5" y="303.4189">Pizza* createPizza(string type)</text><!--MD5=[ba3ed42f56ff51d5e9b1962ee1d7961f]
class factory.factory.ChicagoPizzaStore--><rect codeLine="17" fill="#FEFECE" filter="url(#f11vcu0bzgiw78)" height="61.8359" id="factory.factory.ChicagoPizzaStore" style="stroke:#A80036;stroke-width:1.5;" width="175" x="242.5" y="248"/><ellipse cx="275.5" cy="264" fill="#ADD1B2" rx="11" ry="11" style="stroke:#A80036;stroke-width:1.0;"/><path d="M278.2656,259.875 Q278.4219,259.6563 278.6094,259.5469 Q278.7969,259.4375 279.0156,259.4375 Q279.3906,259.4375 279.625,259.6953 Q279.8594,259.9531 279.8594,260.5625 L279.8594,262.0156 Q279.8594,262.625 279.625,262.8906 Q279.3906,263.1563 279.0156,263.1563 Q278.6719,263.1563 278.4688,262.9531 Q278.2656,262.7656 278.1563,262.25 Q278.1094,261.8906 277.9219,261.7031 Q277.5938,261.3281 276.9844,261.1094 Q276.375,260.8906 275.75,260.8906 Q274.9844,260.8906 274.3516,261.2188 Q273.7188,261.5469 273.2266,262.2969 Q272.7344,263.0469 272.7344,264.0781 L272.7344,265.1719 Q272.7344,266.4063 273.625,267.2266 Q274.5156,268.0469 276.1094,268.0469 Q277.0469,268.0469 277.7031,267.7969 Q278.0938,267.6406 278.5156,267.2031 Q278.7813,266.9375 278.9297,266.8594 Q279.0781,266.7813 279.2813,266.7813 Q279.6094,266.7813 279.8672,267.0391 Q280.125,267.2969 280.125,267.6406 Q280.125,267.9844 279.7813,268.3906 Q279.2813,268.9688 278.4844,269.2969 Q277.4063,269.75 276.1094,269.75 Q274.5938,269.75 273.3906,269.125 Q272.4063,268.625 271.7188,267.5547 Q271.0313,266.4844 271.0313,265.2031 L271.0313,264.0469 Q271.0313,262.7188 271.6484,261.5703 Q272.2656,260.4219 273.3594,259.8047 Q274.4531,259.1875 275.6875,259.1875 Q276.4219,259.1875 277.0703,259.3516 Q277.7188,259.5156 278.2656,259.875 Z " fill="#000000"/><text fill="#000000" font-family="sans-serif" font-size="12" lengthAdjust="spacing" textLength="103" x="293.5" y="268.9102">ChicagoPizzaStore</text><line style="stroke:#A80036;stroke-width:1.5;" x1="243.5" x2="416.5" y1="280" y2="280"/><line style="stroke:#A80036;stroke-width:1.5;" x1="243.5" x2="416.5" y1="288" y2="288"/><ellipse cx="253.5" cy="299" fill="#84BE84" rx="3" ry="3" style="stroke:#038048;stroke-width:1.0;"/><text fill="#000000" font-family="sans-serif" font-size="11" lengthAdjust="spacing" textLength="149" x="262.5" y="303.4189">Pizza* createPizza(string type)</text><!--MD5=[f3ee79a153309f6522db45f08ce6f3ab]
class factory.factory.Pizza--><rect codeLine="32" fill="#FEFECE" filter="url(#f11vcu0bzgiw78)" height="144.8516" id="factory.factory.Pizza" style="stroke:#A80036;stroke-width:1.5;" width="155" x="626.5" y="42"/><ellipse cx="683.75" cy="58" fill="#A9DCDF" rx="11" ry="11" style="stroke:#A80036;stroke-width:1.0;"/><path d="M685.9375,59.7656 L681.7969,59.7656 L681.375,60.7969 L681.7969,60.7969 Q682.4063,60.7969 682.6719,61.0313 Q682.9375,61.2656 682.9375,61.6563 Q682.9375,62.0313 682.6719,62.2656 Q682.4063,62.5 681.7969,62.5 L679.5,62.5 Q678.8906,62.5 678.6328,62.2656 Q678.375,62.0313 678.375,61.6406 Q678.375,61.2656 678.6484,61.0234 Q678.9219,60.7813 679.5469,60.7969 L682.2188,54.1406 L681.1094,54.1406 Q680.5,54.1406 680.2344,53.9063 Q679.9688,53.6719 679.9688,53.2813 Q679.9688,52.9063 680.2344,52.6719 Q680.5,52.4375 681.1094,52.4375 L684.7813,52.4375 L688.1719,60.7969 Q688.7656,60.7969 688.9531,60.9375 Q689.3438,61.2031 689.3438,61.6563 Q689.3438,62.0313 689.0859,62.2656 Q688.8281,62.5 688.2188,62.5 L685.9219,62.5 Q685.3125,62.5 685.0469,62.2656 Q684.7813,62.0313 684.7813,61.6406 Q684.7813,61.2656 685.0469,61.0313 Q685.3125,60.7969 685.9219,60.7969 L686.3438,60.7969 L685.9375,59.7656 Z M685.2188,58.0625 L683.8594,54.6875 L682.4844,58.0625 L685.2188,58.0625 Z " fill="#000000"/><text fill="#000000" font-family="sans-serif" font-size="12" font-style="italic" lengthAdjust="spacing" textLength="32" x="704.25" y="62.9102">Pizza</text><line style="stroke:#A80036;stroke-width:1.5;" x1="627.5" x2="780.5" y1="74" y2="74"/><rect fill="none" height="6" style="stroke:#C82930;stroke-width:1.0;" width="6" x="634.5" y="82"/><text fill="#000000" font-family="sans-serif" font-size="11" lengthAdjust="spacing" textLength="70" x="646.5" y="89.4189">string m_name</text><line style="stroke:#A80036;stroke-width:1.5;" x1="627.5" x2="780.5" y1="95.8359" y2="95.8359"/><ellipse cx="637.5" cy="106.8359" fill="#84BE84" rx="3" ry="3" style="stroke:#038048;stroke-width:1.0;"/><text fill="#000000" font-family="sans-serif" font-size="11" lengthAdjust="spacing" textLength="101" x="646.5" y="111.2549">virtual void prepare()</text><ellipse cx="637.5" cy="120.6719" fill="#84BE84" rx="3" ry="3" style="stroke:#038048;stroke-width:1.0;"/><text fill="#000000" font-family="sans-serif" font-size="11" lengthAdjust="spacing" textLength="63" x="646.5" y="125.0908">virtual bake()</text><ellipse cx="637.5" cy="134.5078" fill="#84BE84" rx="3" ry="3" style="stroke:#038048;stroke-width:1.0;"/><text fill="#000000" font-family="sans-serif" font-size="11" lengthAdjust="spacing" textLength="55" x="646.5" y="138.9268">virtual cut()</text><ellipse cx="637.5" cy="148.3438" fill="#84BE84" rx="3" ry="3" style="stroke:#038048;stroke-width:1.0;"/><text fill="#000000" font-family="sans-serif" font-size="11" lengthAdjust="spacing" textLength="58" x="646.5" y="152.7627">virtual box()</text><ellipse cx="637.5" cy="162.1797" fill="#84BE84" rx="3" ry="3" style="stroke:#038048;stroke-width:1.0;"/><text fill="#000000" font-family="sans-serif" font-size="11" lengthAdjust="spacing" textLength="80" x="646.5" y="166.5986">stirng getName()</text><ellipse cx="637.5" cy="176.0156" fill="#84BE84" rx="3" ry="3" style="stroke:#038048;stroke-width:1.0;"/><text fill="#000000" font-family="sans-serif" font-size="11" lengthAdjust="spacing" textLength="129" x="646.5" y="180.4346">void setName(string name)</text><!--MD5=[31a9c031447be75acfaa0ee39a33e1f7]
class factory.factory.NYStyleCheesePizza--><rect codeLine="35" fill="#FEFECE" filter="url(#f11vcu0bzgiw78)" height="61.8359" id="factory.factory.NYStyleCheesePizza" style="stroke:#A80036;stroke-width:1.5;" width="146" x="1044" y="248"/><ellipse cx="1059" cy="264" fill="#ADD1B2" rx="11" ry="11" style="stroke:#A80036;stroke-width:1.0;"/><path d="M1061.7656,259.875 Q1061.9219,259.6563 1062.1094,259.5469 Q1062.2969,259.4375 1062.5156,259.4375 Q1062.8906,259.4375 1063.125,259.6953 Q1063.3594,259.9531 1063.3594,260.5625 L1063.3594,262.0156 Q1063.3594,262.625 1063.125,262.8906 Q1062.8906,263.1563 1062.5156,263.1563 Q1062.1719,263.1563 1061.9688,262.9531 Q1061.7656,262.7656 1061.6563,262.25 Q1061.6094,261.8906 1061.4219,261.7031 Q1061.0938,261.3281 1060.4844,261.1094 Q1059.875,260.8906 1059.25,260.8906 Q1058.4844,260.8906 1057.8516,261.2188 Q1057.2188,261.5469 1056.7266,262.2969 Q1056.2344,263.0469 1056.2344,264.0781 L1056.2344,265.1719 Q1056.2344,266.4063 1057.125,267.2266 Q1058.0156,268.0469 1059.6094,268.0469 Q1060.5469,268.0469 1061.2031,267.7969 Q1061.5938,267.6406 1062.0156,267.2031 Q1062.2813,266.9375 1062.4297,266.8594 Q1062.5781,266.7813 1062.7813,266.7813 Q1063.1094,266.7813 1063.3672,267.0391 Q1063.625,267.2969 1063.625,267.6406 Q1063.625,267.9844 1063.2813,268.3906 Q1062.7813,268.9688 1061.9844,269.2969 Q1060.9063,269.75 1059.6094,269.75 Q1058.0938,269.75 1056.8906,269.125 Q1055.9063,268.625 1055.2188,267.5547 Q1054.5313,266.4844 1054.5313,265.2031 L1054.5313,264.0469 Q1054.5313,262.7188 1055.1484,261.5703 Q1055.7656,260.4219 1056.8594,259.8047 Q1057.9531,259.1875 1059.1875,259.1875 Q1059.9219,259.1875 1060.5703,259.3516 Q1061.2188,259.5156 1061.7656,259.875 Z " fill="#000000"/><text fill="#000000" font-family="sans-serif" font-size="12" lengthAdjust="spacing" textLength="114" x="1073" y="268.9102">NYStyleCheesePizza</text><line style="stroke:#A80036;stroke-width:1.5;" x1="1045" x2="1189" y1="280" y2="280"/><line style="stroke:#A80036;stroke-width:1.5;" x1="1045" x2="1189" y1="288" y2="288"/><ellipse cx="1055" cy="299" fill="#84BE84" rx="3" ry="3" style="stroke:#038048;stroke-width:1.0;"/><text fill="#000000" font-family="sans-serif" font-size="11" lengthAdjust="spacing" textLength="69" x="1064" y="303.4189">void prepare()</text><!--MD5=[a505be0f21fe9e8428b9b81781788592]
class factory.factory.NYStyleVeggiePizza--><rect codeLine="38" fill="#FEFECE" filter="url(#f11vcu0bzgiw78)" height="61.8359" id="factory.factory.NYStyleVeggiePizza" style="stroke:#A80036;stroke-width:1.5;" width="140" x="453" y="248"/><ellipse cx="468" cy="264" fill="#ADD1B2" rx="11" ry="11" style="stroke:#A80036;stroke-width:1.0;"/><path d="M470.7656,259.875 Q470.9219,259.6563 471.1094,259.5469 Q471.2969,259.4375 471.5156,259.4375 Q471.8906,259.4375 472.125,259.6953 Q472.3594,259.9531 472.3594,260.5625 L472.3594,262.0156 Q472.3594,262.625 472.125,262.8906 Q471.8906,263.1563 471.5156,263.1563 Q471.1719,263.1563 470.9688,262.9531 Q470.7656,262.7656 470.6563,262.25 Q470.6094,261.8906 470.4219,261.7031 Q470.0938,261.3281 469.4844,261.1094 Q468.875,260.8906 468.25,260.8906 Q467.4844,260.8906 466.8516,261.2188 Q466.2188,261.5469 465.7266,262.2969 Q465.2344,263.0469 465.2344,264.0781 L465.2344,265.1719 Q465.2344,266.4063 466.125,267.2266 Q467.0156,268.0469 468.6094,268.0469 Q469.5469,268.0469 470.2031,267.7969 Q470.5938,267.6406 471.0156,267.2031 Q471.2813,266.9375 471.4297,266.8594 Q471.5781,266.7813 471.7813,266.7813 Q472.1094,266.7813 472.3672,267.0391 Q472.625,267.2969 472.625,267.6406 Q472.625,267.9844 472.2813,268.3906 Q471.7813,268.9688 470.9844,269.2969 Q469.9063,269.75 468.6094,269.75 Q467.0938,269.75 465.8906,269.125 Q464.9063,268.625 464.2188,267.5547 Q463.5313,266.4844 463.5313,265.2031 L463.5313,264.0469 Q463.5313,262.7188 464.1484,261.5703 Q464.7656,260.4219 465.8594,259.8047 Q466.9531,259.1875 468.1875,259.1875 Q468.9219,259.1875 469.5703,259.3516 Q470.2188,259.5156 470.7656,259.875 Z " fill="#000000"/><text fill="#000000" font-family="sans-serif" font-size="12" lengthAdjust="spacing" textLength="108" x="482" y="268.9102">NYStyleVeggiePizza</text><line style="stroke:#A80036;stroke-width:1.5;" x1="454" x2="592" y1="280" y2="280"/><line style="stroke:#A80036;stroke-width:1.5;" x1="454" x2="592" y1="288" y2="288"/><ellipse cx="464" cy="299" fill="#84BE84" rx="3" ry="3" style="stroke:#038048;stroke-width:1.0;"/><text fill="#000000" font-family="sans-serif" font-size="11" lengthAdjust="spacing" textLength="54" x="473" y="303.4189">void bake()</text><!--MD5=[bdb6cfeecfc72eb44b0a5897fcea2018]
class factory.factory.ChicagoStyleCheesePizza--><rect codeLine="41" fill="#FEFECE" filter="url(#f11vcu0bzgiw78)" height="61.8359" id="factory.factory.ChicagoStyleCheesePizza" style="stroke:#A80036;stroke-width:1.5;" width="176" x="628" y="248"/><ellipse cx="643" cy="264" fill="#ADD1B2" rx="11" ry="11" style="stroke:#A80036;stroke-width:1.0;"/><path d="M645.7656,259.875 Q645.9219,259.6563 646.1094,259.5469 Q646.2969,259.4375 646.5156,259.4375 Q646.8906,259.4375 647.125,259.6953 Q647.3594,259.9531 647.3594,260.5625 L647.3594,262.0156 Q647.3594,262.625 647.125,262.8906 Q646.8906,263.1563 646.5156,263.1563 Q646.1719,263.1563 645.9688,262.9531 Q645.7656,262.7656 645.6563,262.25 Q645.6094,261.8906 645.4219,261.7031 Q645.0938,261.3281 644.4844,261.1094 Q643.875,260.8906 643.25,260.8906 Q642.4844,260.8906 641.8516,261.2188 Q641.2188,261.5469 640.7266,262.2969 Q640.2344,263.0469 640.2344,264.0781 L640.2344,265.1719 Q640.2344,266.4063 641.125,267.2266 Q642.0156,268.0469 643.6094,268.0469 Q644.5469,268.0469 645.2031,267.7969 Q645.5938,267.6406 646.0156,267.2031 Q646.2813,266.9375 646.4297,266.8594 Q646.5781,266.7813 646.7813,266.7813 Q647.1094,266.7813 647.3672,267.0391 Q647.625,267.2969 647.625,267.6406 Q647.625,267.9844 647.2813,268.3906 Q646.7813,268.9688 645.9844,269.2969 Q644.9063,269.75 643.6094,269.75 Q642.0938,269.75 640.8906,269.125 Q639.9063,268.625 639.2188,267.5547 Q638.5313,266.4844 638.5313,265.2031 L638.5313,264.0469 Q638.5313,262.7188 639.1484,261.5703 Q639.7656,260.4219 640.8594,259.8047 Q641.9531,259.1875 643.1875,259.1875 Q643.9219,259.1875 644.5703,259.3516 Q645.2188,259.5156 645.7656,259.875 Z " fill="#000000"/><text fill="#000000" font-family="sans-serif" font-size="12" lengthAdjust="spacing" textLength="144" x="657" y="268.9102">ChicagoStyleCheesePizza</text><line style="stroke:#A80036;stroke-width:1.5;" x1="629" x2="803" y1="280" y2="280"/><line style="stroke:#A80036;stroke-width:1.5;" x1="629" x2="803" y1="288" y2="288"/><ellipse cx="639" cy="299" fill="#84BE84" rx="3" ry="3" style="stroke:#038048;stroke-width:1.0;"/><text fill="#000000" font-family="sans-serif" font-size="11" lengthAdjust="spacing" textLength="46" x="648" y="303.4189">void cut()</text><!--MD5=[2eb71264fb3ac1592592ba2cbccd15f0]
class factory.factory.ChicagoStyleVeggiePizza--><rect codeLine="44" fill="#FEFECE" filter="url(#f11vcu0bzgiw78)" height="61.8359" id="factory.factory.ChicagoStyleVeggiePizza" style="stroke:#A80036;stroke-width:1.5;" width="170" x="839" y="248"/><ellipse cx="854" cy="264" fill="#ADD1B2" rx="11" ry="11" style="stroke:#A80036;stroke-width:1.0;"/><path d="M856.7656,259.875 Q856.9219,259.6563 857.1094,259.5469 Q857.2969,259.4375 857.5156,259.4375 Q857.8906,259.4375 858.125,259.6953 Q858.3594,259.9531 858.3594,260.5625 L858.3594,262.0156 Q858.3594,262.625 858.125,262.8906 Q857.8906,263.1563 857.5156,263.1563 Q857.1719,263.1563 856.9688,262.9531 Q856.7656,262.7656 856.6563,262.25 Q856.6094,261.8906 856.4219,261.7031 Q856.0938,261.3281 855.4844,261.1094 Q854.875,260.8906 854.25,260.8906 Q853.4844,260.8906 852.8516,261.2188 Q852.2188,261.5469 851.7266,262.2969 Q851.2344,263.0469 851.2344,264.0781 L851.2344,265.1719 Q851.2344,266.4063 852.125,267.2266 Q853.0156,268.0469 854.6094,268.0469 Q855.5469,268.0469 856.2031,267.7969 Q856.5938,267.6406 857.0156,267.2031 Q857.2813,266.9375 857.4297,266.8594 Q857.5781,266.7813 857.7813,266.7813 Q858.1094,266.7813 858.3672,267.0391 Q858.625,267.2969 858.625,267.6406 Q858.625,267.9844 858.2813,268.3906 Q857.7813,268.9688 856.9844,269.2969 Q855.9063,269.75 854.6094,269.75 Q853.0938,269.75 851.8906,269.125 Q850.9063,268.625 850.2188,267.5547 Q849.5313,266.4844 849.5313,265.2031 L849.5313,264.0469 Q849.5313,262.7188 850.1484,261.5703 Q850.7656,260.4219 851.8594,259.8047 Q852.9531,259.1875 854.1875,259.1875 Q854.9219,259.1875 855.5703,259.3516 Q856.2188,259.5156 856.7656,259.875 Z " fill="#000000"/><text fill="#000000" font-family="sans-serif" font-size="12" lengthAdjust="spacing" textLength="138" x="868" y="268.9102">ChicagoStyleVeggiePizza</text><line style="stroke:#A80036;stroke-width:1.5;" x1="840" x2="1008" y1="280" y2="280"/><line style="stroke:#A80036;stroke-width:1.5;" x1="840" x2="1008" y1="288" y2="288"/><ellipse cx="850" cy="299" fill="#84BE84" rx="3" ry="3" style="stroke:#038048;stroke-width:1.0;"/><text fill="#000000" font-family="sans-serif" font-size="11" lengthAdjust="spacing" textLength="49" x="859" y="303.4189">void box()</text><!--MD5=[3efaf780d92d7a1d9b739743b2fd0d7e]
reverse link factory.factory.PizzaStore to factory.factory.NYPizzaStore--><path d="M291.67,163.67 C250.69,190.96 200.68,224.27 165.24,247.87 " fill="none" id="factory.factory.PizzaStore-backto-factory.factory.NYPizzaStore" style="stroke:#A80036;stroke-width:1.0;"/><polygon fill="none" points="287.8,157.84,308.33,152.58,295.56,169.49,287.8,157.84" style="stroke:#A80036;stroke-width:1.0;"/><!--MD5=[65e5b21fbcf0e17dc46c4f9158444a1a]
reverse link factory.factory.PizzaStore to factory.factory.ChicagoPizzaStore--><path d="M352.05,172.62 C346.74,198.01 340.7,226.86 336.29,247.95 " fill="none" id="factory.factory.PizzaStore-backto-factory.factory.ChicagoPizzaStore" style="stroke:#A80036;stroke-width:1.0;"/><polygon fill="none" points="345.25,170.92,356.2,152.78,358.96,173.79,345.25,170.92" style="stroke:#A80036;stroke-width:1.0;"/><!--MD5=[8a15a1c08f94d8a82ed012d8d2fcb7bd]
reverse link factory.factory.Pizza to factory.factory.NYStyleCheesePizza--><path d="M800.45,153.45 C874.8,182.7 976.05,222.54 1043.83,249.21 " fill="none" id="factory.factory.Pizza-backto-factory.factory.NYStyleCheesePizza" style="stroke:#A80036;stroke-width:1.0;"/><polygon fill="none" points="797.73,159.9,781.68,146.07,802.86,146.87,797.73,159.9" style="stroke:#A80036;stroke-width:1.0;"/><!--MD5=[6e3d96daf72cc1fb707b1b9cc41b5839]
reverse link factory.factory.Pizza to factory.factory.NYStyleVeggiePizza--><path d="M611.5,198.54 C591.91,216.14 572.44,233.62 556.77,247.68 " fill="none" id="factory.factory.Pizza-backto-factory.factory.NYStyleVeggiePizza" style="stroke:#A80036;stroke-width:1.0;"/><polygon fill="none" points="606.89,193.27,626.45,185.12,616.25,203.69,606.89,193.27" style="stroke:#A80036;stroke-width:1.0;"/><!--MD5=[37d5f1e38ab6ea00b93fda5d92808a36]
reverse link factory.factory.Pizza to factory.factory.ChicagoStyleCheesePizza--><path d="M710.78,207.25 C711.85,221.85 712.9,235.98 713.76,247.73 " fill="none" id="factory.factory.Pizza-backto-factory.factory.ChicagoStyleCheesePizza" style="stroke:#A80036;stroke-width:1.0;"/><polygon fill="none" points="703.79,207.71,709.3,187.25,717.75,206.68,703.79,207.71" style="stroke:#A80036;stroke-width:1.0;"/><!--MD5=[56c90a241b5b0d554ca6c0b467de2baf]
reverse link factory.factory.Pizza to factory.factory.ChicagoStyleVeggiePizza--><path d="M797.91,184.86 C827.73,206.89 859.16,230.11 883.18,247.85 " fill="none" id="factory.factory.Pizza-backto-factory.factory.ChicagoStyleVeggiePizza" style="stroke:#A80036;stroke-width:1.0;"/><polygon fill="none" points="793.49,190.3,781.56,172.79,801.81,179.04,793.49,190.3" style="stroke:#A80036;stroke-width:1.0;"/><!--MD5=[c692163cf16258fba30cbf9c86ed1572]
link factory.factory.PizzaStore to factory.factory.Pizza--><path codeLine="51" d="M476.74,114.5 C523.92,114.5 577.77,114.5 621.2,114.5 " fill="none" id="factory.factory.PizzaStore-to-factory.factory.Pizza" style="stroke:#A80036;stroke-width:1.0;stroke-dasharray:7.0,7.0;"/><polygon fill="#A80036" points="626.44,114.5,617.44,110.5,621.44,114.5,617.44,118.5,626.44,114.5" style="stroke:#A80036;stroke-width:1.0;"/><text fill="#000000" font-family="sans-serif" font-size="13" lengthAdjust="spacing" textLength="67" x="518" y="107.9951">depends on</text><!--MD5=[c692163cf16258fba30cbf9c86ed1572]
link factory.factory.PizzaStore to factory.factory.Pizza--><!--MD5=[d6bd75e129c9739f357fa30484634a23]
link factory.factory.ChicagoStyleVeggiePizza to factory.factory.NYPizzaStore--><!--MD5=[d12cd2a3f91d2fc8242be1a6a675582b]
@startuml Factory

namespace factory.factory{
    abstract PizzaStore{
        # virtual Pizza* createPizza(string type) = 0
        + Pizza* orderPizza(string type)
    }
    ' note left of PizzaStore::orderPizza
    ' orderPizza() is defined in the abstract PizzaStore, 
    ' not the subclasses. So, the method has no idea 
    ' which subclass is actually running the code and making the pizzas
    ' end note

    class NYPizzaStore extends PizzaStore{
        + Pizza* createPizza(string type)

    }
    class ChicagoPizzaStore extends PizzaStore{
        + Pizza* createPizza(string type)

    }

    abstract Pizza{
        -string m_name
        + virtual void prepare()
        + virtual bake()
        + virtual cut()
        + virtual box()
        + stirng getName()
        + void setName(string name)

    }
    abstract Pizza 
    ' note left: *normal procedure to order a pizza\n*custom procedure can be override in the subclass

    class NYStyleCheesePizza extends Pizza{
        + void prepare()
    }
    class NYStyleVeggiePizza extends Pizza{
        + void bake()
    }
    class ChicagoStyleCheesePizza extends Pizza{
        + void cut()
    }
    class ChicagoStyleVeggiePizza extends Pizza{
        + void box()
    }

    ' NYPizzaStore ..> Pizza: depends on
    ' ChicagoPizzaStore ..> Pizza: depends on

    PizzaStore ..> Pizza: depends on

    'layout
    PizzaStore -[hidden]> Pizza
    ChicagoStyleVeggiePizza -[hidden]> NYPizzaStore


}
@enduml

@startuml Factory

namespace factory.factory{
    abstract PizzaStore{
        # virtual Pizza* createPizza(string type) = 0
        + Pizza* orderPizza(string type)
    }

    class NYPizzaStore extends PizzaStore{
        + Pizza* createPizza(string type)

    }
    class ChicagoPizzaStore extends PizzaStore{
        + Pizza* createPizza(string type)

    }

    abstract Pizza{
        -string m_name
        + virtual void prepare()
        + virtual bake()
        + virtual cut()
        + virtual box()
        + stirng getName()
        + void setName(string name)

    }
    abstract Pizza 

    class NYStyleCheesePizza extends Pizza{
        + void prepare()
    }
    class NYStyleVeggiePizza extends Pizza{
        + void bake()
    }
    class ChicagoStyleCheesePizza extends Pizza{
        + void cut()
    }
    class ChicagoStyleVeggiePizza extends Pizza{
        + void box()
    }


    PizzaStore ..> Pizza: depends on

    PizzaStore -[hidden]> Pizza
    ChicagoStyleVeggiePizza -[hidden]> NYPizzaStore


}
@enduml

PlantUML version 1.2021.12(Wed Oct 06 00:01:58 CST 2021)
(GPL source distribution)
Java Runtime: Java(TM) SE Runtime Environment
JVM: Java HotSpot(TM) Client VM
Default Encoding: Cp1252
Language: en
Country: US
--></g></svg>