<?xml version="1.0" encoding="UTF-8" standalone="no"?><svg xmlns="http://www.w3.org/2000/svg" xmlns:xlink="http://www.w3.org/1999/xlink" contentScriptType="application/ecmascript" contentStyleType="text/css" height="173px" preserveAspectRatio="none" style="width:515px;height:173px;background:#FFFFFF;" version="1.1" viewBox="0 0 515 173" width="515px" zoomAndPan="magnify"><defs><filter height="300%" id="fu7a8s4caycoy" width="300%" x="-1" y="-1"><feGaussianBlur result="blurOut" stdDeviation="2.0"/><feColorMatrix in="blurOut" result="blurOut2" type="matrix" values="0 0 0 0 0 0 0 0 0 0 0 0 0 0 0 0 0 0 .4 0"/><feOffset dx="4.0" dy="4.0" in="blurOut2" result="blurOut3"/><feBlend in="SourceGraphic" in2="blurOut3" mode="normal"/></filter></defs><g><!--MD5=[4d27dd9f5e974748c889b12616d52491]
cluster sub system, including lots of interface--><polygon fill="#FFFFFF" filter="url(#fu7a8s4caycoy)" points="198,66.55,471,66.55,478,90.1594,498,90.1594,498,166.55,198,166.55,198,66.55" style="stroke:#000000;stroke-width:1.5;"/><line style="stroke:#000000;stroke-width:1.5;" x1="198" x2="478" y1="90.1594" y2="90.1594"/><text fill="#000000" font-family="sans-serif" font-size="14" font-weight="bold" lengthAdjust="spacing" textLength="267" x="202" y="83.0832">sub system, including lots of interface</text><!--MD5=[a46ee5ce0ceb0380cf446a08a056dce4]
class A--><rect codeLine="11" fill="#FEFECE" filter="url(#fu7a8s4caycoy)" height="48" id="A" style="stroke:#A80036;stroke-width:1.5;" width="39" x="214.5" y="102.55"/><ellipse cx="229.5" cy="118.55" fill="#ADD1B2" rx="11" ry="11" style="stroke:#A80036;stroke-width:1.0;"/><path d="M232.2656,114.425 Q232.4219,114.2063 232.6094,114.0969 Q232.7969,113.9875 233.0156,113.9875 Q233.3906,113.9875 233.625,114.2453 Q233.8594,114.5031 233.8594,115.1125 L233.8594,116.5656 Q233.8594,117.175 233.625,117.4406 Q233.3906,117.7063 233.0156,117.7063 Q232.6719,117.7063 232.4688,117.5031 Q232.2656,117.3156 232.1563,116.8 Q232.1094,116.4406 231.9219,116.2531 Q231.5938,115.8781 230.9844,115.6594 Q230.375,115.4406 229.75,115.4406 Q228.9844,115.4406 228.3516,115.7688 Q227.7188,116.0969 227.2266,116.8469 Q226.7344,117.5969 226.7344,118.6281 L226.7344,119.7219 Q226.7344,120.9563 227.625,121.7766 Q228.5156,122.5969 230.1094,122.5969 Q231.0469,122.5969 231.7031,122.3469 Q232.0938,122.1906 232.5156,121.7531 Q232.7813,121.4875 232.9297,121.4094 Q233.0781,121.3313 233.2813,121.3313 Q233.6094,121.3313 233.8672,121.5891 Q234.125,121.8469 234.125,122.1906 Q234.125,122.5344 233.7813,122.9406 Q233.2813,123.5188 232.4844,123.8469 Q231.4063,124.3 230.1094,124.3 Q228.5938,124.3 227.3906,123.675 Q226.4063,123.175 225.7188,122.1047 Q225.0313,121.0344 225.0313,119.7531 L225.0313,118.5969 Q225.0313,117.2688 225.6484,116.1203 Q226.2656,114.9719 227.3594,114.3547 Q228.4531,113.7375 229.6875,113.7375 Q230.4219,113.7375 231.0703,113.9016 Q231.7188,114.0656 232.2656,114.425 Z " fill="#000000"/><text fill="#000000" font-family="sans-serif" font-size="12" lengthAdjust="spacing" textLength="7" x="243.5" y="123.4602">A</text><line style="stroke:#A80036;stroke-width:1.5;" x1="215.5" x2="252.5" y1="134.55" y2="134.55"/><line style="stroke:#A80036;stroke-width:1.5;" x1="215.5" x2="252.5" y1="142.55" y2="142.55"/><!--MD5=[69c451c751c414e37549b782190fef46]
class B--><rect codeLine="12" fill="#FEFECE" filter="url(#fu7a8s4caycoy)" height="48" id="B" style="stroke:#A80036;stroke-width:1.5;" width="40" x="289" y="102.55"/><ellipse cx="304" cy="118.55" fill="#ADD1B2" rx="11" ry="11" style="stroke:#A80036;stroke-width:1.0;"/><path d="M306.7656,114.425 Q306.9219,114.2063 307.1094,114.0969 Q307.2969,113.9875 307.5156,113.9875 Q307.8906,113.9875 308.125,114.2453 Q308.3594,114.5031 308.3594,115.1125 L308.3594,116.5656 Q308.3594,117.175 308.125,117.4406 Q307.8906,117.7063 307.5156,117.7063 Q307.1719,117.7063 306.9688,117.5031 Q306.7656,117.3156 306.6563,116.8 Q306.6094,116.4406 306.4219,116.2531 Q306.0938,115.8781 305.4844,115.6594 Q304.875,115.4406 304.25,115.4406 Q303.4844,115.4406 302.8516,115.7688 Q302.2188,116.0969 301.7266,116.8469 Q301.2344,117.5969 301.2344,118.6281 L301.2344,119.7219 Q301.2344,120.9563 302.125,121.7766 Q303.0156,122.5969 304.6094,122.5969 Q305.5469,122.5969 306.2031,122.3469 Q306.5938,122.1906 307.0156,121.7531 Q307.2813,121.4875 307.4297,121.4094 Q307.5781,121.3313 307.7813,121.3313 Q308.1094,121.3313 308.3672,121.5891 Q308.625,121.8469 308.625,122.1906 Q308.625,122.5344 308.2813,122.9406 Q307.7813,123.5188 306.9844,123.8469 Q305.9063,124.3 304.6094,124.3 Q303.0938,124.3 301.8906,123.675 Q300.9063,123.175 300.2188,122.1047 Q299.5313,121.0344 299.5313,119.7531 L299.5313,118.5969 Q299.5313,117.2688 300.1484,116.1203 Q300.7656,114.9719 301.8594,114.3547 Q302.9531,113.7375 304.1875,113.7375 Q304.9219,113.7375 305.5703,113.9016 Q306.2188,114.0656 306.7656,114.425 Z " fill="#000000"/><text fill="#000000" font-family="sans-serif" font-size="12" lengthAdjust="spacing" textLength="8" x="318" y="123.4602">B</text><line style="stroke:#A80036;stroke-width:1.5;" x1="290" x2="328" y1="134.55" y2="134.55"/><line style="stroke:#A80036;stroke-width:1.5;" x1="290" x2="328" y1="142.55" y2="142.55"/><!--MD5=[378b18254a1b2429f435e93f5e5cc50c]
class C--><rect codeLine="13" fill="#FEFECE" filter="url(#fu7a8s4caycoy)" height="48" id="C" style="stroke:#A80036;stroke-width:1.5;" width="41" x="364.5" y="102.55"/><ellipse cx="379.5" cy="118.55" fill="#ADD1B2" rx="11" ry="11" style="stroke:#A80036;stroke-width:1.0;"/><path d="M382.2656,114.425 Q382.4219,114.2063 382.6094,114.0969 Q382.7969,113.9875 383.0156,113.9875 Q383.3906,113.9875 383.625,114.2453 Q383.8594,114.5031 383.8594,115.1125 L383.8594,116.5656 Q383.8594,117.175 383.625,117.4406 Q383.3906,117.7063 383.0156,117.7063 Q382.6719,117.7063 382.4688,117.5031 Q382.2656,117.3156 382.1563,116.8 Q382.1094,116.4406 381.9219,116.2531 Q381.5938,115.8781 380.9844,115.6594 Q380.375,115.4406 379.75,115.4406 Q378.9844,115.4406 378.3516,115.7688 Q377.7188,116.0969 377.2266,116.8469 Q376.7344,117.5969 376.7344,118.6281 L376.7344,119.7219 Q376.7344,120.9563 377.625,121.7766 Q378.5156,122.5969 380.1094,122.5969 Q381.0469,122.5969 381.7031,122.3469 Q382.0938,122.1906 382.5156,121.7531 Q382.7813,121.4875 382.9297,121.4094 Q383.0781,121.3313 383.2813,121.3313 Q383.6094,121.3313 383.8672,121.5891 Q384.125,121.8469 384.125,122.1906 Q384.125,122.5344 383.7813,122.9406 Q383.2813,123.5188 382.4844,123.8469 Q381.4063,124.3 380.1094,124.3 Q378.5938,124.3 377.3906,123.675 Q376.4063,123.175 375.7188,122.1047 Q375.0313,121.0344 375.0313,119.7531 L375.0313,118.5969 Q375.0313,117.2688 375.6484,116.1203 Q376.2656,114.9719 377.3594,114.3547 Q378.4531,113.7375 379.6875,113.7375 Q380.4219,113.7375 381.0703,113.9016 Q381.7188,114.0656 382.2656,114.425 Z " fill="#000000"/><text fill="#000000" font-family="sans-serif" font-size="12" lengthAdjust="spacing" textLength="9" x="393.5" y="123.4602">C</text><line style="stroke:#A80036;stroke-width:1.5;" x1="365.5" x2="404.5" y1="134.55" y2="134.55"/><line style="stroke:#A80036;stroke-width:1.5;" x1="365.5" x2="404.5" y1="142.55" y2="142.55"/><!--MD5=[69b356fec5e4f53d7535011b6fc9d60b]
class D--><rect codeLine="14" fill="#FEFECE" filter="url(#fu7a8s4caycoy)" height="48" id="D" style="stroke:#A80036;stroke-width:1.5;" width="41" x="440.5" y="102.55"/><ellipse cx="455.5" cy="118.55" fill="#ADD1B2" rx="11" ry="11" style="stroke:#A80036;stroke-width:1.0;"/><path d="M458.2656,114.425 Q458.4219,114.2063 458.6094,114.0969 Q458.7969,113.9875 459.0156,113.9875 Q459.3906,113.9875 459.625,114.2453 Q459.8594,114.5031 459.8594,115.1125 L459.8594,116.5656 Q459.8594,117.175 459.625,117.4406 Q459.3906,117.7063 459.0156,117.7063 Q458.6719,117.7063 458.4688,117.5031 Q458.2656,117.3156 458.1563,116.8 Q458.1094,116.4406 457.9219,116.2531 Q457.5938,115.8781 456.9844,115.6594 Q456.375,115.4406 455.75,115.4406 Q454.9844,115.4406 454.3516,115.7688 Q453.7188,116.0969 453.2266,116.8469 Q452.7344,117.5969 452.7344,118.6281 L452.7344,119.7219 Q452.7344,120.9563 453.625,121.7766 Q454.5156,122.5969 456.1094,122.5969 Q457.0469,122.5969 457.7031,122.3469 Q458.0938,122.1906 458.5156,121.7531 Q458.7813,121.4875 458.9297,121.4094 Q459.0781,121.3313 459.2813,121.3313 Q459.6094,121.3313 459.8672,121.5891 Q460.125,121.8469 460.125,122.1906 Q460.125,122.5344 459.7813,122.9406 Q459.2813,123.5188 458.4844,123.8469 Q457.4063,124.3 456.1094,124.3 Q454.5938,124.3 453.3906,123.675 Q452.4063,123.175 451.7188,122.1047 Q451.0313,121.0344 451.0313,119.7531 L451.0313,118.5969 Q451.0313,117.2688 451.6484,116.1203 Q452.2656,114.9719 453.3594,114.3547 Q454.4531,113.7375 455.6875,113.7375 Q456.4219,113.7375 457.0703,113.9016 Q457.7188,114.0656 458.2656,114.425 Z " fill="#000000"/><text fill="#000000" font-family="sans-serif" font-size="12" lengthAdjust="spacing" textLength="9" x="469.5" y="123.4602">D</text><line style="stroke:#A80036;stroke-width:1.5;" x1="441.5" x2="480.5" y1="134.55" y2="134.55"/><line style="stroke:#A80036;stroke-width:1.5;" x1="441.5" x2="480.5" y1="142.55" y2="142.55"/><!--MD5=[ed6624c6556d5e7b1bd23032162d20b7]
class Client--><rect codeLine="2" fill="#FEFECE" filter="url(#fu7a8s4caycoy)" height="48" id="Client" style="stroke:#A80036;stroke-width:1.5;" width="64" x="7" y="102.55"/><ellipse cx="22" cy="118.55" fill="#ADD1B2" rx="11" ry="11" style="stroke:#A80036;stroke-width:1.0;"/><path d="M24.7656,114.425 Q24.9219,114.2063 25.1094,114.0969 Q25.2969,113.9875 25.5156,113.9875 Q25.8906,113.9875 26.125,114.2453 Q26.3594,114.5031 26.3594,115.1125 L26.3594,116.5656 Q26.3594,117.175 26.125,117.4406 Q25.8906,117.7063 25.5156,117.7063 Q25.1719,117.7063 24.9688,117.5031 Q24.7656,117.3156 24.6563,116.8 Q24.6094,116.4406 24.4219,116.2531 Q24.0938,115.8781 23.4844,115.6594 Q22.875,115.4406 22.25,115.4406 Q21.4844,115.4406 20.8516,115.7688 Q20.2188,116.0969 19.7266,116.8469 Q19.2344,117.5969 19.2344,118.6281 L19.2344,119.7219 Q19.2344,120.9563 20.125,121.7766 Q21.0156,122.5969 22.6094,122.5969 Q23.5469,122.5969 24.2031,122.3469 Q24.5938,122.1906 25.0156,121.7531 Q25.2813,121.4875 25.4297,121.4094 Q25.5781,121.3313 25.7813,121.3313 Q26.1094,121.3313 26.3672,121.5891 Q26.625,121.8469 26.625,122.1906 Q26.625,122.5344 26.2813,122.9406 Q25.7813,123.5188 24.9844,123.8469 Q23.9063,124.3 22.6094,124.3 Q21.0938,124.3 19.8906,123.675 Q18.9063,123.175 18.2188,122.1047 Q17.5313,121.0344 17.5313,119.7531 L17.5313,118.5969 Q17.5313,117.2688 18.1484,116.1203 Q18.7656,114.9719 19.8594,114.3547 Q20.9531,113.7375 22.1875,113.7375 Q22.9219,113.7375 23.5703,113.9016 Q24.2188,114.0656 24.7656,114.425 Z " fill="#000000"/><text fill="#000000" font-family="sans-serif" font-size="12" lengthAdjust="spacing" textLength="32" x="36" y="123.4602">Client</text><line style="stroke:#A80036;stroke-width:1.5;" x1="8" x2="70" y1="134.55" y2="134.55"/><line style="stroke:#A80036;stroke-width:1.5;" x1="8" x2="70" y1="142.55" y2="142.55"/><!--MD5=[790e9955d9690e5344ead96b2c38e22e]
class Facade--><rect codeLine="5" fill="#FEFECE" filter="url(#fu7a8s4caycoy)" height="48" id="Facade" style="stroke:#A80036;stroke-width:1.5;" width="73" x="106.5" y="102.55"/><ellipse cx="121.5" cy="118.55" fill="#ADD1B2" rx="11" ry="11" style="stroke:#A80036;stroke-width:1.0;"/><path d="M124.2656,114.425 Q124.4219,114.2063 124.6094,114.0969 Q124.7969,113.9875 125.0156,113.9875 Q125.3906,113.9875 125.625,114.2453 Q125.8594,114.5031 125.8594,115.1125 L125.8594,116.5656 Q125.8594,117.175 125.625,117.4406 Q125.3906,117.7063 125.0156,117.7063 Q124.6719,117.7063 124.4688,117.5031 Q124.2656,117.3156 124.1563,116.8 Q124.1094,116.4406 123.9219,116.2531 Q123.5938,115.8781 122.9844,115.6594 Q122.375,115.4406 121.75,115.4406 Q120.9844,115.4406 120.3516,115.7688 Q119.7188,116.0969 119.2266,116.8469 Q118.7344,117.5969 118.7344,118.6281 L118.7344,119.7219 Q118.7344,120.9563 119.625,121.7766 Q120.5156,122.5969 122.1094,122.5969 Q123.0469,122.5969 123.7031,122.3469 Q124.0938,122.1906 124.5156,121.7531 Q124.7813,121.4875 124.9297,121.4094 Q125.0781,121.3313 125.2813,121.3313 Q125.6094,121.3313 125.8672,121.5891 Q126.125,121.8469 126.125,122.1906 Q126.125,122.5344 125.7813,122.9406 Q125.2813,123.5188 124.4844,123.8469 Q123.4063,124.3 122.1094,124.3 Q120.5938,124.3 119.3906,123.675 Q118.4063,123.175 117.7188,122.1047 Q117.0313,121.0344 117.0313,119.7531 L117.0313,118.5969 Q117.0313,117.2688 117.6484,116.1203 Q118.2656,114.9719 119.3594,114.3547 Q120.4531,113.7375 121.6875,113.7375 Q122.4219,113.7375 123.0703,113.9016 Q123.7188,114.0656 124.2656,114.425 Z " fill="#000000"/><text fill="#000000" font-family="sans-serif" font-size="12" lengthAdjust="spacing" textLength="41" x="135.5" y="123.4602">Facade</text><line style="stroke:#A80036;stroke-width:1.5;" x1="107.5" x2="178.5" y1="134.55" y2="134.55"/><line style="stroke:#A80036;stroke-width:1.5;" x1="107.5" x2="178.5" y1="142.55" y2="142.55"/><!--MD5=[b443b131f9e558b5ae61c4966c336f30]
link Client to Facade--><path codeLine="8" d="M71.09,126.55 C81.14,126.55 91.19,126.55 101.23,126.55 " fill="none" id="Client-to-Facade" style="stroke:#A80036;stroke-width:1.0;"/><polygon fill="#A80036" points="106.49,126.55,97.49,122.55,101.49,126.55,97.49,130.55,106.49,126.55" style="stroke:#A80036;stroke-width:1.0;"/><!--MD5=[5e2eec62a50b26b6b0db6c12e4ee289c]
link A to B--><path codeLine="16" d="M253.63,126.55 C265.31,126.55 276.99,126.55 288.67,126.55 " fill="none" id="A-B" style="stroke:#A80036;stroke-width:1.0;"/><!--MD5=[cd25d8247324207f828a4db9f58ed69d]
link B to C--><path codeLine="17" d="M329.19,126.55 C340.82,126.55 352.44,126.55 364.07,126.55 " fill="none" id="B-C" style="stroke:#A80036;stroke-width:1.0;"/><!--MD5=[95ca888c4bb7ed1df160562281720a5c]
link C to D--><path codeLine="18" d="M405.78,126.55 C417.29,126.55 428.79,126.55 440.29,126.55 " fill="none" id="C-D" style="stroke:#A80036;stroke-width:1.0;"/><!--MD5=[635162b0568dccf9b81699e51957888e]
link B to D--><path codeLine="19" d="M315.12,102.12 C322.47,78.52 337.37,44.13 364.5,28.55 C380.3,19.47 389.7,19.47 405.5,28.55 C432.63,44.13 447.53,78.52 454.88,102.12 " fill="none" id="B-D" style="stroke:#A80036;stroke-width:1.0;"/><!--MD5=[dceabcf31f6f682b2d6ebd0e9a75e0b7]
link A to Facade--><path codeLine="20" d="M214.45,126.55 C204.56,126.55 194.67,126.55 184.79,126.55 " fill="none" id="A-to-Facade" style="stroke:#A80036;stroke-width:1.0;"/><polygon fill="#A80036" points="179.61,126.55,188.61,130.55,184.61,126.55,188.61,122.55,179.61,126.55" style="stroke:#A80036;stroke-width:1.0;"/><!--MD5=[457f431aebed194478ac39ce07492831]
link B to Facade--><path codeLine="21" d="M302.88,102.12 C295.53,78.52 280.63,44.13 253.5,28.55 C214.24,6 176.57,61.18 156.97,97.59 " fill="none" id="B-to-Facade" style="stroke:#A80036;stroke-width:1.0;"/><polygon fill="#A80036" points="154.44,102.37,162.1843,96.2852,156.7781,97.9504,155.1129,92.5442,154.44,102.37" style="stroke:#A80036;stroke-width:1.0;"/><!--MD5=[9a2eac56b46a9c977981d41470a2896c]
@startuml Facade Pattern
' 使用单个外观类隔离多重依赖
class Client{

}
class Facade{

}
Client -> Facade

package "sub system, including lots of interface"{
    class A
    class B
    class C
    class D
    
    A - B
    B - C
    C - D
    B - D
    A -> Facade
    B -> Facade
}
@enduml

@startuml Facade Pattern
class Client{

}
class Facade{

}
Client -> Facade

package "sub system, including lots of interface"{
    class A
    class B
    class C
    class D
    
    A - B
    B - C
    C - D
    B - D
    A -> Facade
    B -> Facade
}
@enduml

PlantUML version 1.2021.12(Wed Oct 06 00:01:58 CST 2021)
(GPL source distribution)
Java Runtime: Java(TM) SE Runtime Environment
JVM: Java HotSpot(TM) Client VM
Default Encoding: Cp1252
Language: en
Country: US
--></g></svg>