<?xml version="1.0" encoding="UTF-8" standalone="no"?><svg xmlns="http://www.w3.org/2000/svg" xmlns:xlink="http://www.w3.org/1999/xlink" contentScriptType="application/ecmascript" contentStyleType="text/css" height="576px" preserveAspectRatio="none" style="width:1448px;height:576px;background:#FFFFFF;" version="1.1" viewBox="0 0 1448 576" width="1448px" zoomAndPan="magnify"><defs><filter height="300%" id="fa526exbxmimi" width="300%" x="-1" y="-1"><feGaussianBlur result="blurOut" stdDeviation="2.0"/><feColorMatrix in="blurOut" result="blurOut2" type="matrix" values="0 0 0 0 0 0 0 0 0 0 0 0 0 0 0 0 0 0 .4 0"/><feOffset dx="4.0" dy="4.0" in="blurOut2" result="blurOut3"/><feBlend in="SourceGraphic" in2="blurOut3" mode="normal"/></filter></defs><g><!--MD5=[406b65fecc21e832f7a9b6ebadc6dce1]
cluster Client--><polygon fill="#FFFFFF" filter="url(#fa526exbxmimi)" points="16,6,63,6,70,29.6094,611,29.6094,611,444,16,444,16,6" style="stroke:#000000;stroke-width:1.5;"/><line style="stroke:#000000;stroke-width:1.5;" x1="16" x2="70" y1="29.6094" y2="29.6094"/><text fill="#000000" font-family="sans-serif" font-size="14" font-weight="bold" lengthAdjust="spacing" textLength="41" x="20" y="22.5332">Client</text><!--MD5=[58a486be5f2ab85b75d3fbe0730d0833]
cluster Encapsulate Fly Behavior--><polygon fill="#FFFFFF" filter="url(#fa526exbxmimi)" points="635,330,819,330,826,353.6094,1021,353.6094,1021,569,635,569,635,330" style="stroke:#000000;stroke-width:1.5;"/><line style="stroke:#000000;stroke-width:1.5;" x1="635" x2="826" y1="353.6094" y2="353.6094"/><text fill="#000000" font-family="sans-serif" font-size="14" font-weight="bold" lengthAdjust="spacing" textLength="178" x="639" y="346.5332">Encapsulate Fly Behavior</text><!--MD5=[5ebef14d4aec282ac09fdeead22ec069]
cluster Encapsulate Quack Behavior--><polygon fill="#FFFFFF" filter="url(#fa526exbxmimi)" points="1045,330,1253,330,1260,353.6094,1431,353.6094,1431,569,1045,569,1045,330" style="stroke:#000000;stroke-width:1.5;"/><line style="stroke:#000000;stroke-width:1.5;" x1="1045" x2="1260" y1="353.6094" y2="353.6094"/><text fill="#000000" font-family="sans-serif" font-size="14" font-weight="bold" lengthAdjust="spacing" textLength="202" x="1049" y="346.5332">Encapsulate Quack Behavior</text><!--MD5=[ee80f128756adf0e95ba2af8ad3ecb8c]
class Duck--><rect codeLine="3" fill="#FEFECE" filter="url(#fa526exbxmimi)" height="158.6875" id="Duck" style="stroke:#A80036;stroke-width:1.5;" width="193" x="401.5" y="74.5"/><ellipse cx="479.25" cy="90.5" fill="#A9DCDF" rx="11" ry="11" style="stroke:#A80036;stroke-width:1.0;"/><path d="M481.4375,92.2656 L477.2969,92.2656 L476.875,93.2969 L477.2969,93.2969 Q477.9063,93.2969 478.1719,93.5313 Q478.4375,93.7656 478.4375,94.1563 Q478.4375,94.5313 478.1719,94.7656 Q477.9063,95 477.2969,95 L475,95 Q474.3906,95 474.1328,94.7656 Q473.875,94.5313 473.875,94.1406 Q473.875,93.7656 474.1484,93.5234 Q474.4219,93.2813 475.0469,93.2969 L477.7188,86.6406 L476.6094,86.6406 Q476,86.6406 475.7344,86.4063 Q475.4688,86.1719 475.4688,85.7813 Q475.4688,85.4063 475.7344,85.1719 Q476,84.9375 476.6094,84.9375 L480.2813,84.9375 L483.6719,93.2969 Q484.2656,93.2969 484.4531,93.4375 Q484.8438,93.7031 484.8438,94.1563 Q484.8438,94.5313 484.5859,94.7656 Q484.3281,95 483.7188,95 L481.4219,95 Q480.8125,95 480.5469,94.7656 Q480.2813,94.5313 480.2813,94.1406 Q480.2813,93.7656 480.5469,93.5313 Q480.8125,93.2969 481.4219,93.2969 L481.8438,93.2969 L481.4375,92.2656 Z M480.7188,90.5625 L479.3594,87.1875 L477.9844,90.5625 L480.7188,90.5625 Z " fill="#000000"/><text fill="#000000" font-family="sans-serif" font-size="12" font-style="italic" lengthAdjust="spacing" textLength="29" x="499.75" y="95.4102">Duck</text><line style="stroke:#A80036;stroke-width:1.5;" x1="402.5" x2="593.5" y1="106.5" y2="106.5"/><rect fill="none" height="6" style="stroke:#C82930;stroke-width:1.0;" width="6" x="409.5" y="114.5"/><text fill="#000000" font-family="sans-serif" font-size="11" lengthAdjust="spacing" textLength="133" x="421.5" y="121.9189">FlyBehavior* m_flyBehavior</text><rect fill="none" height="6" style="stroke:#C82930;stroke-width:1.0;" width="6" x="409.5" y="128.3359"/><text fill="#000000" font-family="sans-serif" font-size="11" lengthAdjust="spacing" textLength="167" x="421.5" y="135.7549">QuackBehavior* m_quackBehavior</text><line style="stroke:#A80036;stroke-width:1.0;" x1="402.5" x2="593.5" y1="142.1719" y2="142.1719"/><ellipse cx="412.5" cy="153.1719" fill="#84BE84" rx="3" ry="3" style="stroke:#038048;stroke-width:1.0;"/><text fill="#000000" font-family="sans-serif" font-size="11" lengthAdjust="spacing" textLength="115" x="421.5" y="157.5908">virtual void display() = 0</text><ellipse cx="412.5" cy="167.0078" fill="#84BE84" rx="3" ry="3" style="stroke:#038048;stroke-width:1.0;"/><text fill="#000000" font-family="sans-serif" font-size="11" lengthAdjust="spacing" textLength="83" x="421.5" y="171.4268">void performFly()</text><ellipse cx="412.5" cy="180.8438" fill="#84BE84" rx="3" ry="3" style="stroke:#038048;stroke-width:1.0;"/><text fill="#000000" font-family="sans-serif" font-size="11" lengthAdjust="spacing" textLength="100" x="421.5" y="185.2627">void performQuack()</text><ellipse cx="412.5" cy="194.6797" fill="#84BE84" rx="3" ry="3" style="stroke:#038048;stroke-width:1.0;"/><text fill="#000000" font-family="sans-serif" font-size="11" lengthAdjust="spacing" textLength="103" x="421.5" y="199.0986">void setFlyBehavior()</text><ellipse cx="412.5" cy="208.5156" fill="#84BE84" rx="3" ry="3" style="stroke:#038048;stroke-width:1.0;"/><text fill="#000000" font-family="sans-serif" font-size="11" lengthAdjust="spacing" textLength="120" x="421.5" y="212.9346">void setQuackBehavior()</text><text fill="#000000" font-family="sans-serif" font-size="11" lengthAdjust="spacing" textLength="128" x="421.5" y="226.7705">// other behavior of Duck...</text><path d="M32,42 L32,68.3516 A0,0 0 0 0 32,68.3516 L366,68.3516 A0,0 0 0 0 366,68.3516 L366,60 L405.5,117.418 L366,52 L366,52 L356,42 L32,42 A0,0 0 0 0 32,42 " fill="#FBFB77" filter="url(#fa526exbxmimi)" style="stroke:#A80036;stroke-width:1.0;"/><path d="M356,42 L356,52 L366,52 L356,42 " fill="#FBFB77" style="stroke:#A80036;stroke-width:1.0;"/><text fill="#000000" font-family="sans-serif" font-size="13" lengthAdjust="spacing" textLength="134" x="38" y="60.4951">把Duck容易改变的行为</text><text fill="#0000FF" font-family="sans-serif" font-size="13" lengthAdjust="spacing" textLength="26" x="172" y="60.4951">封装</text><text fill="#000000" font-family="sans-serif" font-size="13" lengthAdjust="spacing" textLength="153" x="198" y="60.4951">到对应的Behavior接口中，</text><path d="M32,78.3516 L32,170.1094 A0,0 0 0 0 32,170.1094 L276,170.1094 A0,0 0 0 0 276,170.1094 L276,128.2305 L405.5,166.9258 L276,120.2305 L276,88.3516 L266,78.3516 L32,78.3516 A0,0 0 0 0 32,78.3516 " fill="#FBFB77" filter="url(#fa526exbxmimi)" style="stroke:#A80036;stroke-width:1.0;"/><path d="M266,78.3516 L266,88.3516 L276,88.3516 L266,78.3516 " fill="#FBFB77" style="stroke:#A80036;stroke-width:1.0;"/><text fill="#000000" font-family="sans-serif" font-size="13" lengthAdjust="spacing" textLength="4" x="38" y="96.8467">{</text><text fill="#000000" font-family="sans-serif" font-size="13" lengthAdjust="spacing" textLength="8" x="54" y="113.1982">//</text><text fill="#0000FF" font-family="sans-serif" font-size="13" lengthAdjust="spacing" textLength="26" x="66" y="113.1982">委托</text><text fill="#000000" font-family="sans-serif" font-size="13" lengthAdjust="spacing" textLength="169" x="92" y="113.1982">对应的接口去完成不同的行为</text><text fill="#000000" font-family="sans-serif" font-size="13" lengthAdjust="spacing" textLength="117" x="54" y="129.5498">m_flyBehavior-&gt;fly();</text><text fill="#000000" font-family="sans-serif" font-size="13" lengthAdjust="spacing" textLength="4" x="38" y="145.9014">}</text><text fill="#000000" font-family="sans-serif" font-size="13" lengthAdjust="spacing" textLength="0" x="42" y="162.2529"/><path d="M32,180.1094 L32,255.5156 A0,0 0 0 0 32,255.5156 L276,255.5156 A0,0 0 0 0 276,255.5156 L276,221.8125 L405.5,180.7617 L276,213.8125 L276,190.1094 L266,180.1094 L32,180.1094 A0,0 0 0 0 32,180.1094 " fill="#FBFB77" filter="url(#fa526exbxmimi)" style="stroke:#A80036;stroke-width:1.0;"/><path d="M266,180.1094 L266,190.1094 L276,190.1094 L266,180.1094 " fill="#FBFB77" style="stroke:#A80036;stroke-width:1.0;"/><text fill="#000000" font-family="sans-serif" font-size="13" lengthAdjust="spacing" textLength="4" x="38" y="198.6045">{</text><text fill="#000000" font-family="sans-serif" font-size="13" lengthAdjust="spacing" textLength="8" x="54" y="214.9561">//</text><text fill="#0000FF" font-family="sans-serif" font-size="13" lengthAdjust="spacing" textLength="26" x="66" y="214.9561">委托</text><text fill="#000000" font-family="sans-serif" font-size="13" lengthAdjust="spacing" textLength="169" x="92" y="214.9561">对应的接口去完成不同的行为</text><text fill="#000000" font-family="sans-serif" font-size="13" lengthAdjust="spacing" textLength="164" x="54" y="231.3076">m_QuackBehavior-&gt;quack();</text><text fill="#000000" font-family="sans-serif" font-size="13" lengthAdjust="spacing" textLength="4" x="38" y="247.6592">}</text><!--MD5=[6b7aa2b48f699f84e43038c6d40cb339]
class MallarDuck--><rect codeLine="34" fill="#FEFECE" filter="url(#fa526exbxmimi)" height="61.8359" id="MallarDuck" style="stroke:#A80036;stroke-width:1.5;" width="93" x="353.5" y="366"/><ellipse cx="368.5" cy="382" fill="#ADD1B2" rx="11" ry="11" style="stroke:#A80036;stroke-width:1.0;"/><path d="M371.2656,377.875 Q371.4219,377.6563 371.6094,377.5469 Q371.7969,377.4375 372.0156,377.4375 Q372.3906,377.4375 372.625,377.6953 Q372.8594,377.9531 372.8594,378.5625 L372.8594,380.0156 Q372.8594,380.625 372.625,380.8906 Q372.3906,381.1563 372.0156,381.1563 Q371.6719,381.1563 371.4688,380.9531 Q371.2656,380.7656 371.1563,380.25 Q371.1094,379.8906 370.9219,379.7031 Q370.5938,379.3281 369.9844,379.1094 Q369.375,378.8906 368.75,378.8906 Q367.9844,378.8906 367.3516,379.2188 Q366.7188,379.5469 366.2266,380.2969 Q365.7344,381.0469 365.7344,382.0781 L365.7344,383.1719 Q365.7344,384.4063 366.625,385.2266 Q367.5156,386.0469 369.1094,386.0469 Q370.0469,386.0469 370.7031,385.7969 Q371.0938,385.6406 371.5156,385.2031 Q371.7813,384.9375 371.9297,384.8594 Q372.0781,384.7813 372.2813,384.7813 Q372.6094,384.7813 372.8672,385.0391 Q373.125,385.2969 373.125,385.6406 Q373.125,385.9844 372.7813,386.3906 Q372.2813,386.9688 371.4844,387.2969 Q370.4063,387.75 369.1094,387.75 Q367.5938,387.75 366.3906,387.125 Q365.4063,386.625 364.7188,385.5547 Q364.0313,384.4844 364.0313,383.2031 L364.0313,382.0469 Q364.0313,380.7188 364.6484,379.5703 Q365.2656,378.4219 366.3594,377.8047 Q367.4531,377.1875 368.6875,377.1875 Q369.4219,377.1875 370.0703,377.3516 Q370.7188,377.5156 371.2656,377.875 Z " fill="#000000"/><text fill="#000000" font-family="sans-serif" font-size="12" lengthAdjust="spacing" textLength="61" x="382.5" y="386.9102">MallarDuck</text><line style="stroke:#A80036;stroke-width:1.5;" x1="354.5" x2="445.5" y1="398" y2="398"/><line style="stroke:#A80036;stroke-width:1.5;" x1="354.5" x2="445.5" y1="406" y2="406"/><ellipse cx="364.5" cy="417" fill="#84BE84" rx="3" ry="3" style="stroke:#038048;stroke-width:1.0;"/><text fill="#000000" font-family="sans-serif" font-size="11" lengthAdjust="spacing" textLength="65" x="373.5" y="421.4189">void display()</text><!--MD5=[63d6d3b89924d904df1c14c4e399b513]
class RubberDuck--><rect codeLine="38" fill="#FEFECE" filter="url(#fa526exbxmimi)" height="61.8359" id="RubberDuck" style="stroke:#A80036;stroke-width:1.5;" width="101" x="481.5" y="366"/><ellipse cx="496.5" cy="382" fill="#ADD1B2" rx="11" ry="11" style="stroke:#A80036;stroke-width:1.0;"/><path d="M499.2656,377.875 Q499.4219,377.6563 499.6094,377.5469 Q499.7969,377.4375 500.0156,377.4375 Q500.3906,377.4375 500.625,377.6953 Q500.8594,377.9531 500.8594,378.5625 L500.8594,380.0156 Q500.8594,380.625 500.625,380.8906 Q500.3906,381.1563 500.0156,381.1563 Q499.6719,381.1563 499.4688,380.9531 Q499.2656,380.7656 499.1563,380.25 Q499.1094,379.8906 498.9219,379.7031 Q498.5938,379.3281 497.9844,379.1094 Q497.375,378.8906 496.75,378.8906 Q495.9844,378.8906 495.3516,379.2188 Q494.7188,379.5469 494.2266,380.2969 Q493.7344,381.0469 493.7344,382.0781 L493.7344,383.1719 Q493.7344,384.4063 494.625,385.2266 Q495.5156,386.0469 497.1094,386.0469 Q498.0469,386.0469 498.7031,385.7969 Q499.0938,385.6406 499.5156,385.2031 Q499.7813,384.9375 499.9297,384.8594 Q500.0781,384.7813 500.2813,384.7813 Q500.6094,384.7813 500.8672,385.0391 Q501.125,385.2969 501.125,385.6406 Q501.125,385.9844 500.7813,386.3906 Q500.2813,386.9688 499.4844,387.2969 Q498.4063,387.75 497.1094,387.75 Q495.5938,387.75 494.3906,387.125 Q493.4063,386.625 492.7188,385.5547 Q492.0313,384.4844 492.0313,383.2031 L492.0313,382.0469 Q492.0313,380.7188 492.6484,379.5703 Q493.2656,378.4219 494.3594,377.8047 Q495.4531,377.1875 496.6875,377.1875 Q497.4219,377.1875 498.0703,377.3516 Q498.7188,377.5156 499.2656,377.875 Z " fill="#000000"/><text fill="#000000" font-family="sans-serif" font-size="12" lengthAdjust="spacing" textLength="69" x="510.5" y="386.9102">RubberDuck</text><line style="stroke:#A80036;stroke-width:1.5;" x1="482.5" x2="581.5" y1="398" y2="398"/><line style="stroke:#A80036;stroke-width:1.5;" x1="482.5" x2="581.5" y1="406" y2="406"/><ellipse cx="492.5" cy="417" fill="#84BE84" rx="3" ry="3" style="stroke:#038048;stroke-width:1.0;"/><text fill="#000000" font-family="sans-serif" font-size="11" lengthAdjust="spacing" textLength="65" x="501.5" y="421.4189">void display()</text><!--MD5=[af677bcdc2bb09b4f404821b519a80a1]
class FlyBehavior--><rect codeLine="47" fill="#FEFECE" filter="url(#fa526exbxmimi)" height="61.8359" id="FlyBehavior" style="stroke:#A80036;stroke-width:1.5;" width="119" x="712.5" y="366"/><ellipse cx="737.4" cy="382" fill="#B4A7E5" rx="11" ry="11" style="stroke:#A80036;stroke-width:1.0;"/><path d="M738.3531,378.6406 L738.3531,385.2969 L740.0719,385.2969 Q740.6813,385.2969 740.9469,385.5313 Q741.2125,385.7656 741.2125,386.1563 Q741.2125,386.5313 740.9469,386.7656 Q740.6813,387 740.0719,387 L734.9313,387 Q734.3219,387 734.0563,386.7656 Q733.7906,386.5313 733.7906,386.1406 Q733.7906,385.7656 734.0563,385.5313 Q734.3219,385.2969 734.9313,385.2969 L736.65,385.2969 L736.65,378.6406 L734.9313,378.6406 Q734.3219,378.6406 734.0563,378.4063 Q733.7906,378.1719 733.7906,377.7813 Q733.7906,377.4063 734.0563,377.1719 Q734.3219,376.9375 734.9313,376.9375 L740.0719,376.9375 Q740.6813,376.9375 740.9469,377.1719 Q741.2125,377.4063 741.2125,377.7813 Q741.2125,378.1719 740.9469,378.4063 Q740.6813,378.6406 740.0719,378.6406 L738.3531,378.6406 Z " fill="#000000"/><text fill="#000000" font-family="sans-serif" font-size="12" font-style="italic" lengthAdjust="spacing" textLength="65" x="753.6" y="386.9102">FlyBehavior</text><line style="stroke:#A80036;stroke-width:1.5;" x1="713.5" x2="830.5" y1="398" y2="398"/><line style="stroke:#A80036;stroke-width:1.5;" x1="713.5" x2="830.5" y1="406" y2="406"/><ellipse cx="723.5" cy="417" fill="#84BE84" rx="3" ry="3" style="stroke:#038048;stroke-width:1.0;"/><text fill="#000000" font-family="sans-serif" font-size="11" lengthAdjust="spacing" textLength="93" x="732.5" y="421.4189">virtual void fly() = 0</text><!--MD5=[4b23d2805c144888dfba661554d654ab]
class FlyWithWings--><rect codeLine="52" fill="#FEFECE" filter="url(#fa526exbxmimi)" height="61.8359" id="FlyWithWings" style="stroke:#A80036;stroke-width:1.5;" width="106" x="651" y="491"/><ellipse cx="666" cy="507" fill="#ADD1B2" rx="11" ry="11" style="stroke:#A80036;stroke-width:1.0;"/><path d="M668.7656,502.875 Q668.9219,502.6563 669.1094,502.5469 Q669.2969,502.4375 669.5156,502.4375 Q669.8906,502.4375 670.125,502.6953 Q670.3594,502.9531 670.3594,503.5625 L670.3594,505.0156 Q670.3594,505.625 670.125,505.8906 Q669.8906,506.1563 669.5156,506.1563 Q669.1719,506.1563 668.9688,505.9531 Q668.7656,505.7656 668.6563,505.25 Q668.6094,504.8906 668.4219,504.7031 Q668.0938,504.3281 667.4844,504.1094 Q666.875,503.8906 666.25,503.8906 Q665.4844,503.8906 664.8516,504.2188 Q664.2188,504.5469 663.7266,505.2969 Q663.2344,506.0469 663.2344,507.0781 L663.2344,508.1719 Q663.2344,509.4063 664.125,510.2266 Q665.0156,511.0469 666.6094,511.0469 Q667.5469,511.0469 668.2031,510.7969 Q668.5938,510.6406 669.0156,510.2031 Q669.2813,509.9375 669.4297,509.8594 Q669.5781,509.7813 669.7813,509.7813 Q670.1094,509.7813 670.3672,510.0391 Q670.625,510.2969 670.625,510.6406 Q670.625,510.9844 670.2813,511.3906 Q669.7813,511.9688 668.9844,512.2969 Q667.9063,512.75 666.6094,512.75 Q665.0938,512.75 663.8906,512.125 Q662.9063,511.625 662.2188,510.5547 Q661.5313,509.4844 661.5313,508.2031 L661.5313,507.0469 Q661.5313,505.7188 662.1484,504.5703 Q662.7656,503.4219 663.8594,502.8047 Q664.9531,502.1875 666.1875,502.1875 Q666.9219,502.1875 667.5703,502.3516 Q668.2188,502.5156 668.7656,502.875 Z " fill="#000000"/><text fill="#000000" font-family="sans-serif" font-size="12" lengthAdjust="spacing" textLength="74" x="680" y="511.9102">FlyWithWings</text><line style="stroke:#A80036;stroke-width:1.5;" x1="652" x2="756" y1="523" y2="523"/><line style="stroke:#A80036;stroke-width:1.5;" x1="652" x2="756" y1="531" y2="531"/><text fill="#000000" font-family="sans-serif" font-size="11" lengthAdjust="spacing" textLength="43" x="657" y="546.4189">void fly()</text><!--MD5=[6f2bf8346b6a8d2b0e677dd5d5363741]
class FlyNoway--><rect codeLine="55" fill="#FEFECE" filter="url(#fa526exbxmimi)" height="61.8359" id="FlyNoway" style="stroke:#A80036;stroke-width:1.5;" width="84" x="792" y="491"/><ellipse cx="807" cy="507" fill="#ADD1B2" rx="11" ry="11" style="stroke:#A80036;stroke-width:1.0;"/><path d="M809.7656,502.875 Q809.9219,502.6563 810.1094,502.5469 Q810.2969,502.4375 810.5156,502.4375 Q810.8906,502.4375 811.125,502.6953 Q811.3594,502.9531 811.3594,503.5625 L811.3594,505.0156 Q811.3594,505.625 811.125,505.8906 Q810.8906,506.1563 810.5156,506.1563 Q810.1719,506.1563 809.9688,505.9531 Q809.7656,505.7656 809.6563,505.25 Q809.6094,504.8906 809.4219,504.7031 Q809.0938,504.3281 808.4844,504.1094 Q807.875,503.8906 807.25,503.8906 Q806.4844,503.8906 805.8516,504.2188 Q805.2188,504.5469 804.7266,505.2969 Q804.2344,506.0469 804.2344,507.0781 L804.2344,508.1719 Q804.2344,509.4063 805.125,510.2266 Q806.0156,511.0469 807.6094,511.0469 Q808.5469,511.0469 809.2031,510.7969 Q809.5938,510.6406 810.0156,510.2031 Q810.2813,509.9375 810.4297,509.8594 Q810.5781,509.7813 810.7813,509.7813 Q811.1094,509.7813 811.3672,510.0391 Q811.625,510.2969 811.625,510.6406 Q811.625,510.9844 811.2813,511.3906 Q810.7813,511.9688 809.9844,512.2969 Q808.9063,512.75 807.6094,512.75 Q806.0938,512.75 804.8906,512.125 Q803.9063,511.625 803.2188,510.5547 Q802.5313,509.4844 802.5313,508.2031 L802.5313,507.0469 Q802.5313,505.7188 803.1484,504.5703 Q803.7656,503.4219 804.8594,502.8047 Q805.9531,502.1875 807.1875,502.1875 Q807.9219,502.1875 808.5703,502.3516 Q809.2188,502.5156 809.7656,502.875 Z " fill="#000000"/><text fill="#000000" font-family="sans-serif" font-size="12" lengthAdjust="spacing" textLength="52" x="821" y="511.9102">FlyNoway</text><line style="stroke:#A80036;stroke-width:1.5;" x1="793" x2="875" y1="523" y2="523"/><line style="stroke:#A80036;stroke-width:1.5;" x1="793" x2="875" y1="531" y2="531"/><text fill="#000000" font-family="sans-serif" font-size="11" lengthAdjust="spacing" textLength="43" x="798" y="546.4189">void fly()</text><!--MD5=[77694109b6e599ea0badd92673580a88]
class FlynewWay--><rect codeLine="58" fill="#FEFECE" filter="url(#fa526exbxmimi)" height="61.8359" id="FlynewWay" style="stroke:#A80036;stroke-width:1.5;" width="93" x="911.5" y="491"/><ellipse cx="926.5" cy="507" fill="#ADD1B2" rx="11" ry="11" style="stroke:#A80036;stroke-width:1.0;"/><path d="M929.2656,502.875 Q929.4219,502.6563 929.6094,502.5469 Q929.7969,502.4375 930.0156,502.4375 Q930.3906,502.4375 930.625,502.6953 Q930.8594,502.9531 930.8594,503.5625 L930.8594,505.0156 Q930.8594,505.625 930.625,505.8906 Q930.3906,506.1563 930.0156,506.1563 Q929.6719,506.1563 929.4688,505.9531 Q929.2656,505.7656 929.1563,505.25 Q929.1094,504.8906 928.9219,504.7031 Q928.5938,504.3281 927.9844,504.1094 Q927.375,503.8906 926.75,503.8906 Q925.9844,503.8906 925.3516,504.2188 Q924.7188,504.5469 924.2266,505.2969 Q923.7344,506.0469 923.7344,507.0781 L923.7344,508.1719 Q923.7344,509.4063 924.625,510.2266 Q925.5156,511.0469 927.1094,511.0469 Q928.0469,511.0469 928.7031,510.7969 Q929.0938,510.6406 929.5156,510.2031 Q929.7813,509.9375 929.9297,509.8594 Q930.0781,509.7813 930.2813,509.7813 Q930.6094,509.7813 930.8672,510.0391 Q931.125,510.2969 931.125,510.6406 Q931.125,510.9844 930.7813,511.3906 Q930.2813,511.9688 929.4844,512.2969 Q928.4063,512.75 927.1094,512.75 Q925.5938,512.75 924.3906,512.125 Q923.4063,511.625 922.7188,510.5547 Q922.0313,509.4844 922.0313,508.2031 L922.0313,507.0469 Q922.0313,505.7188 922.6484,504.5703 Q923.2656,503.4219 924.3594,502.8047 Q925.4531,502.1875 926.6875,502.1875 Q927.4219,502.1875 928.0703,502.3516 Q928.7188,502.5156 929.2656,502.875 Z " fill="#000000"/><text fill="#000000" font-family="sans-serif" font-size="12" lengthAdjust="spacing" textLength="61" x="940.5" y="511.9102">FlynewWay</text><line style="stroke:#A80036;stroke-width:1.5;" x1="912.5" x2="1003.5" y1="523" y2="523"/><line style="stroke:#A80036;stroke-width:1.5;" x1="912.5" x2="1003.5" y1="531" y2="531"/><text fill="#000000" font-family="sans-serif" font-size="11" lengthAdjust="spacing" textLength="43" x="917.5" y="546.4189">void fly()</text><!--MD5=[bfa3cda608d0a5fb34213275021c73a4]
class QuackBehavior--><rect codeLine="66" fill="#FEFECE" filter="url(#fa526exbxmimi)" height="61.8359" id="QuackBehavior" style="stroke:#A80036;stroke-width:1.5;" width="136" x="1119" y="366"/><ellipse cx="1142.55" cy="382" fill="#B4A7E5" rx="11" ry="11" style="stroke:#A80036;stroke-width:1.0;"/><path d="M1143.5031,378.6406 L1143.5031,385.2969 L1145.2219,385.2969 Q1145.8313,385.2969 1146.0969,385.5313 Q1146.3625,385.7656 1146.3625,386.1563 Q1146.3625,386.5313 1146.0969,386.7656 Q1145.8313,387 1145.2219,387 L1140.0813,387 Q1139.4719,387 1139.2063,386.7656 Q1138.9406,386.5313 1138.9406,386.1406 Q1138.9406,385.7656 1139.2063,385.5313 Q1139.4719,385.2969 1140.0813,385.2969 L1141.8,385.2969 L1141.8,378.6406 L1140.0813,378.6406 Q1139.4719,378.6406 1139.2063,378.4063 Q1138.9406,378.1719 1138.9406,377.7813 Q1138.9406,377.4063 1139.2063,377.1719 Q1139.4719,376.9375 1140.0813,376.9375 L1145.2219,376.9375 Q1145.8313,376.9375 1146.0969,377.1719 Q1146.3625,377.4063 1146.3625,377.7813 Q1146.3625,378.1719 1146.0969,378.4063 Q1145.8313,378.6406 1145.2219,378.6406 L1143.5031,378.6406 Z " fill="#000000"/><text fill="#000000" font-family="sans-serif" font-size="12" font-style="italic" lengthAdjust="spacing" textLength="85" x="1158.45" y="386.9102">QuackBehavior</text><line style="stroke:#A80036;stroke-width:1.5;" x1="1120" x2="1254" y1="398" y2="398"/><line style="stroke:#A80036;stroke-width:1.5;" x1="1120" x2="1254" y1="406" y2="406"/><ellipse cx="1130" cy="417" fill="#84BE84" rx="3" ry="3" style="stroke:#038048;stroke-width:1.0;"/><text fill="#000000" font-family="sans-serif" font-size="11" lengthAdjust="spacing" textLength="110" x="1139" y="421.4189">virtual void quack() = 0</text><!--MD5=[7cc87d83ed562b553084823102c559df]
class SimpleQuack--><rect codeLine="69" fill="#FEFECE" filter="url(#fa526exbxmimi)" height="61.8359" id="SimpleQuack" style="stroke:#A80036;stroke-width:1.5;" width="106" x="1061" y="491"/><ellipse cx="1076" cy="507" fill="#ADD1B2" rx="11" ry="11" style="stroke:#A80036;stroke-width:1.0;"/><path d="M1078.7656,502.875 Q1078.9219,502.6563 1079.1094,502.5469 Q1079.2969,502.4375 1079.5156,502.4375 Q1079.8906,502.4375 1080.125,502.6953 Q1080.3594,502.9531 1080.3594,503.5625 L1080.3594,505.0156 Q1080.3594,505.625 1080.125,505.8906 Q1079.8906,506.1563 1079.5156,506.1563 Q1079.1719,506.1563 1078.9688,505.9531 Q1078.7656,505.7656 1078.6563,505.25 Q1078.6094,504.8906 1078.4219,504.7031 Q1078.0938,504.3281 1077.4844,504.1094 Q1076.875,503.8906 1076.25,503.8906 Q1075.4844,503.8906 1074.8516,504.2188 Q1074.2188,504.5469 1073.7266,505.2969 Q1073.2344,506.0469 1073.2344,507.0781 L1073.2344,508.1719 Q1073.2344,509.4063 1074.125,510.2266 Q1075.0156,511.0469 1076.6094,511.0469 Q1077.5469,511.0469 1078.2031,510.7969 Q1078.5938,510.6406 1079.0156,510.2031 Q1079.2813,509.9375 1079.4297,509.8594 Q1079.5781,509.7813 1079.7813,509.7813 Q1080.1094,509.7813 1080.3672,510.0391 Q1080.625,510.2969 1080.625,510.6406 Q1080.625,510.9844 1080.2813,511.3906 Q1079.7813,511.9688 1078.9844,512.2969 Q1077.9063,512.75 1076.6094,512.75 Q1075.0938,512.75 1073.8906,512.125 Q1072.9063,511.625 1072.2188,510.5547 Q1071.5313,509.4844 1071.5313,508.2031 L1071.5313,507.0469 Q1071.5313,505.7188 1072.1484,504.5703 Q1072.7656,503.4219 1073.8594,502.8047 Q1074.9531,502.1875 1076.1875,502.1875 Q1076.9219,502.1875 1077.5703,502.3516 Q1078.2188,502.5156 1078.7656,502.875 Z " fill="#000000"/><text fill="#000000" font-family="sans-serif" font-size="12" lengthAdjust="spacing" textLength="74" x="1090" y="511.9102">SimpleQuack</text><line style="stroke:#A80036;stroke-width:1.5;" x1="1062" x2="1166" y1="523" y2="523"/><line style="stroke:#A80036;stroke-width:1.5;" x1="1062" x2="1166" y1="531" y2="531"/><ellipse cx="1072" cy="542" fill="#84BE84" rx="3" ry="3" style="stroke:#038048;stroke-width:1.0;"/><text fill="#000000" font-family="sans-serif" font-size="11" lengthAdjust="spacing" textLength="60" x="1081" y="546.4189">void quack()</text><!--MD5=[b06745f4f8b01cb2d04f663bfc454499]
class Mute--><rect codeLine="72" fill="#FEFECE" filter="url(#fa526exbxmimi)" height="61.8359" id="Mute" style="stroke:#A80036;stroke-width:1.5;" width="86" x="1202" y="491"/><ellipse cx="1229.6" cy="507" fill="#ADD1B2" rx="11" ry="11" style="stroke:#A80036;stroke-width:1.0;"/><path d="M1232.3656,502.875 Q1232.5219,502.6563 1232.7094,502.5469 Q1232.8969,502.4375 1233.1156,502.4375 Q1233.4906,502.4375 1233.725,502.6953 Q1233.9594,502.9531 1233.9594,503.5625 L1233.9594,505.0156 Q1233.9594,505.625 1233.725,505.8906 Q1233.4906,506.1563 1233.1156,506.1563 Q1232.7719,506.1563 1232.5688,505.9531 Q1232.3656,505.7656 1232.2563,505.25 Q1232.2094,504.8906 1232.0219,504.7031 Q1231.6938,504.3281 1231.0844,504.1094 Q1230.475,503.8906 1229.85,503.8906 Q1229.0844,503.8906 1228.4516,504.2188 Q1227.8188,504.5469 1227.3266,505.2969 Q1226.8344,506.0469 1226.8344,507.0781 L1226.8344,508.1719 Q1226.8344,509.4063 1227.725,510.2266 Q1228.6156,511.0469 1230.2094,511.0469 Q1231.1469,511.0469 1231.8031,510.7969 Q1232.1938,510.6406 1232.6156,510.2031 Q1232.8813,509.9375 1233.0297,509.8594 Q1233.1781,509.7813 1233.3813,509.7813 Q1233.7094,509.7813 1233.9672,510.0391 Q1234.225,510.2969 1234.225,510.6406 Q1234.225,510.9844 1233.8813,511.3906 Q1233.3813,511.9688 1232.5844,512.2969 Q1231.5063,512.75 1230.2094,512.75 Q1228.6938,512.75 1227.4906,512.125 Q1226.5063,511.625 1225.8188,510.5547 Q1225.1313,509.4844 1225.1313,508.2031 L1225.1313,507.0469 Q1225.1313,505.7188 1225.7484,504.5703 Q1226.3656,503.4219 1227.4594,502.8047 Q1228.5531,502.1875 1229.7875,502.1875 Q1230.5219,502.1875 1231.1703,502.3516 Q1231.8188,502.5156 1232.3656,502.875 Z " fill="#000000"/><text fill="#000000" font-family="sans-serif" font-size="12" lengthAdjust="spacing" textLength="26" x="1246.4" y="511.9102">Mute</text><line style="stroke:#A80036;stroke-width:1.5;" x1="1203" x2="1287" y1="523" y2="523"/><line style="stroke:#A80036;stroke-width:1.5;" x1="1203" x2="1287" y1="531" y2="531"/><ellipse cx="1213" cy="542" fill="#84BE84" rx="3" ry="3" style="stroke:#038048;stroke-width:1.0;"/><text fill="#000000" font-family="sans-serif" font-size="11" lengthAdjust="spacing" textLength="60" x="1222" y="546.4189">void quack()</text><!--MD5=[d11249829925792d4e57d8fd66efa6fa]
class NewQuack--><rect codeLine="75" fill="#FEFECE" filter="url(#fa526exbxmimi)" height="61.8359" id="NewQuack" style="stroke:#A80036;stroke-width:1.5;" width="92" x="1323" y="491"/><ellipse cx="1338" cy="507" fill="#ADD1B2" rx="11" ry="11" style="stroke:#A80036;stroke-width:1.0;"/><path d="M1340.7656,502.875 Q1340.9219,502.6563 1341.1094,502.5469 Q1341.2969,502.4375 1341.5156,502.4375 Q1341.8906,502.4375 1342.125,502.6953 Q1342.3594,502.9531 1342.3594,503.5625 L1342.3594,505.0156 Q1342.3594,505.625 1342.125,505.8906 Q1341.8906,506.1563 1341.5156,506.1563 Q1341.1719,506.1563 1340.9688,505.9531 Q1340.7656,505.7656 1340.6563,505.25 Q1340.6094,504.8906 1340.4219,504.7031 Q1340.0938,504.3281 1339.4844,504.1094 Q1338.875,503.8906 1338.25,503.8906 Q1337.4844,503.8906 1336.8516,504.2188 Q1336.2188,504.5469 1335.7266,505.2969 Q1335.2344,506.0469 1335.2344,507.0781 L1335.2344,508.1719 Q1335.2344,509.4063 1336.125,510.2266 Q1337.0156,511.0469 1338.6094,511.0469 Q1339.5469,511.0469 1340.2031,510.7969 Q1340.5938,510.6406 1341.0156,510.2031 Q1341.2813,509.9375 1341.4297,509.8594 Q1341.5781,509.7813 1341.7813,509.7813 Q1342.1094,509.7813 1342.3672,510.0391 Q1342.625,510.2969 1342.625,510.6406 Q1342.625,510.9844 1342.2813,511.3906 Q1341.7813,511.9688 1340.9844,512.2969 Q1339.9063,512.75 1338.6094,512.75 Q1337.0938,512.75 1335.8906,512.125 Q1334.9063,511.625 1334.2188,510.5547 Q1333.5313,509.4844 1333.5313,508.2031 L1333.5313,507.0469 Q1333.5313,505.7188 1334.1484,504.5703 Q1334.7656,503.4219 1335.8594,502.8047 Q1336.9531,502.1875 1338.1875,502.1875 Q1338.9219,502.1875 1339.5703,502.3516 Q1340.2188,502.5156 1340.7656,502.875 Z " fill="#000000"/><text fill="#000000" font-family="sans-serif" font-size="12" lengthAdjust="spacing" textLength="60" x="1352" y="511.9102">NewQuack</text><line style="stroke:#A80036;stroke-width:1.5;" x1="1324" x2="1414" y1="523" y2="523"/><line style="stroke:#A80036;stroke-width:1.5;" x1="1324" x2="1414" y1="531" y2="531"/><ellipse cx="1334" cy="542" fill="#84BE84" rx="3" ry="3" style="stroke:#038048;stroke-width:1.0;"/><text fill="#000000" font-family="sans-serif" font-size="11" lengthAdjust="spacing" textLength="60" x="1343" y="546.4189">void quack()</text><!--MD5=[72aa4d47bb2b93e68331e94bad2a88f7]
link Duck$$$LEFT to Duck--><!--MD5=[1775a266fce6dd61e422d78ff7eaf2f9]
reverse link Duck to MallarDuck--><path d="M458.45,252.27 C441.89,292.99 423.83,337.39 412.24,365.9 " fill="none" id="Duck-backto-MallarDuck" style="stroke:#A80036;stroke-width:1.0;"/><polygon fill="none" points="452.03,249.47,466.05,233.58,465,254.74,452.03,249.47" style="stroke:#A80036;stroke-width:1.0;"/><!--MD5=[4fa56e32ebb0bad05c9f28ed45ec70ee]
reverse link Duck to RubberDuck--><path d="M511.92,253.65 C517.61,293.99 523.78,337.71 527.75,365.9 " fill="none" id="Duck-backto-RubberDuck" style="stroke:#A80036;stroke-width:1.0;"/><polygon fill="none" points="504.95,254.36,509.09,233.58,518.81,252.4,504.95,254.36" style="stroke:#A80036;stroke-width:1.0;"/><!--MD5=[e50b2ffaffe6322a759c8f7e5c9a5713]
link Duck to FlyBehavior--><path codeLine="45" d="M587.34,233.58 C636.91,277.18 696,329.15 733.74,362.35 " fill="none" id="Duck-to-FlyBehavior" style="stroke:#A80036;stroke-width:1.0;"/><polygon fill="#A80036" points="737.78,365.9,733.6576,356.9554,734.0233,362.6004,728.3783,362.9661,737.78,365.9" style="stroke:#A80036;stroke-width:1.0;"/><text fill="#000000" font-family="sans-serif" font-size="13" lengthAdjust="spacing" textLength="32" x="676" y="310.4951">has a</text><!--MD5=[7b9ca3f548166b0df550cb500f51b1ea]
reverse link FlyBehavior to FlyWithWings--><path d="M745.61,445.73 C737.23,460.89 728.2,477.23 720.7,490.8 " fill="none" id="FlyBehavior-backto-FlyWithWings" style="stroke:#A80036;stroke-width:1.0;stroke-dasharray:7.0,7.0;"/><polygon fill="none" points="739.56,442.21,755.37,428.09,751.81,448.98,739.56,442.21" style="stroke:#A80036;stroke-width:1.0;"/><!--MD5=[f66666e7914ece877581146ad25c2910]
reverse link FlyBehavior to FlyNoway--><path d="M796.19,445.98 C803.79,461.07 811.97,477.3 818.77,490.8 " fill="none" id="FlyBehavior-backto-FlyNoway" style="stroke:#A80036;stroke-width:1.0;stroke-dasharray:7.0,7.0;"/><polygon fill="none" points="789.92,449.1,787.17,428.09,802.42,442.8,789.92,449.1" style="stroke:#A80036;stroke-width:1.0;"/><!--MD5=[8e10fab523120f2cac7c2a8a66e7a6e2]
reverse link FlyBehavior to FlynewWay--><path d="M834.48,439.32 C859.96,456.17 888.88,475.29 912.32,490.8 " fill="none" id="FlyBehavior-backto-FlynewWay" style="stroke:#A80036;stroke-width:1.0;stroke-dasharray:7.0,7.0;"/><polygon fill="none" points="830.32,444.96,817.5,428.09,838.04,433.28,830.32,444.96" style="stroke:#A80036;stroke-width:1.0;"/><!--MD5=[558109a3f34e730dd920630256a28503]
link Duck to QuackBehavior--><path codeLine="64" d="M594.53,182.35 C700.32,213.12 874.49,266.15 1021,322 C1053.74,334.48 1089.32,350.06 1119.11,363.7 " fill="none" id="Duck-to-QuackBehavior" style="stroke:#A80036;stroke-width:1.0;"/><polygon fill="#A80036" points="1123.84,365.87,1117.3298,358.4796,1119.296,363.7838,1113.9919,365.75,1123.84,365.87" style="stroke:#A80036;stroke-width:1.0;"/><text fill="#000000" font-family="sans-serif" font-size="13" lengthAdjust="spacing" textLength="32" x="994" y="310.4951">has a</text><!--MD5=[c821b05720a92e30e95c55c971267a00]
reverse link QuackBehavior to SimpleQuack--><path d="M1158.82,445.48 C1149.78,460.71 1140.02,477.15 1131.93,490.8 " fill="none" id="QuackBehavior-backto-SimpleQuack" style="stroke:#A80036;stroke-width:1.0;stroke-dasharray:7.0,7.0;"/><polygon fill="none" points="1152.91,441.72,1169.14,428.09,1164.95,448.86,1152.91,441.72" style="stroke:#A80036;stroke-width:1.0;"/><!--MD5=[8d30ef6e90965b985ebb6d5e47ab8809]
reverse link QuackBehavior to Mute--><path d="M1209.74,446.23 C1216.83,461.25 1224.43,477.38 1230.76,490.8 " fill="none" id="QuackBehavior-backto-Mute" style="stroke:#A80036;stroke-width:1.0;stroke-dasharray:7.0,7.0;"/><polygon fill="none" points="1203.39,449.16,1201.19,428.09,1216.05,443.19,1203.39,449.16" style="stroke:#A80036;stroke-width:1.0;"/><!--MD5=[4004d6c0b1998c5dcd341251faa4165b]
reverse link QuackBehavior to NewQuack--><path d="M1248.14,439.32 C1273.07,456.17 1301.36,475.29 1324.31,490.8 " fill="none" id="QuackBehavior-backto-NewQuack" style="stroke:#A80036;stroke-width:1.0;stroke-dasharray:7.0,7.0;"/><polygon fill="none" points="1244.17,445.09,1231.52,428.09,1252.01,433.49,1244.17,445.09" style="stroke:#A80036;stroke-width:1.0;"/><!--MD5=[8d9b21d820cfd8c10fa45114b434750c]
@startuml Strategy Pattern

package "Client"{
Abstract class Duck
{
    - FlyBehavior* m_flyBehavior
    - QuackBehavior* m_quackBehavior
    - -
    + virtual void display() = 0
    + void performFly()
    + void performQuack()
    + void setFlyBehavior()
    + void setQuackBehavior()
    // other behavior of Duck...
}
note left of Duck::m_flyBehavior
把Duck容易改变的行为<color:blue>封装</color>到对应的Behavior接口中，
end note

note left of Duck::performFly
{   
    // <color:blue>委托</color>对应的接口去完成不同的行为
    m_flyBehavior->fly();  
}

end note

note left of Duck::performQuack
{   
    // <color:blue>委托</color>对应的接口去完成不同的行为
    m_QuackBehavior->quack();  
}
end note

class MallarDuck extends Duck{
    +void display()
}

class RubberDuck extends Duck{
    +void display()
}

}

package "Encapsulate Fly Behavior"{
Duck - ->FlyBehavior: has a

interface FlyBehavior{
    + virtual void fly() = 0
}


class FlyWithWings implements FlyBehavior{
    void fly()
}
class FlyNoway implements FlyBehavior{
    void fly()
}
class FlynewWay implements FlyBehavior{
    void fly()
}
}

package "Encapsulate Quack Behavior"{
Duck - ->QuackBehavior: has a

interface QuackBehavior{
    + virtual void quack() = 0
}
class SimpleQuack implements QuackBehavior{
    + void quack()
}
class Mute implements QuackBehavior{
    + void quack()
}
class NewQuack implements QuackBehavior{
    + void quack()
}
}
@enduml

PlantUML version 1.2021.12(Wed Oct 06 00:01:58 CST 2021)
(GPL source distribution)
Java Runtime: Java(TM) SE Runtime Environment
JVM: Java HotSpot(TM) Client VM
Default Encoding: Cp1252
Language: en
Country: US
--></g></svg>